<?xml version="1.0" encoding="UTF-8"?>
<svg id="Layer_1" height="45px" data-name="Layer 1" xmlns="http://www.w3.org/2000/svg" viewBox="0 0 186.07 86.94">
  <defs>
    <style>
      .cls-1 {
        fill: #0782c5;
      }

      .cls-1, .cls-2 {
        stroke-width: 0px;
      }

      .cls-2 {
        fill: #f7971c;
      }
    </style>
  </defs>
  <path class="cls-2" d="m168.5,43.63c.12-.43,2.6-9.32,3.1-11.12h-4.99c-.16.17-.38.42-.7.8-.75.86-1.78,2.05-2.86,2.97-1.22.95-3.14,1.83-4.41,2.42-1.07.5-1.28.61-1.35.74-.02.04-.23.79-.23.79-.25.83-.61,2.07-.93,3.39h-6.41l-1.85,7.06h6.15c-.1.47-5.83,21.25-5.83,21.25-.09.52-.13,1.01-.13,1.49,0,1.55.45,2.87,1.32,3.9,1.17,1.38,3.05,2.17,5.18,2.17h7.47l1.64-6.64-.19-.05c-1.44-.42-2.19-1.28-2.19-2.5,0-.05,0-.1,0-.15.11-1.56,4.65-17.59,5.06-19.25h6.03l1.96-7.27h-5.83Z"/>
  <polygon class="cls-1" points="33.58 43.1 23.77 43.1 14.23 78.93 .74 78.93 10.41 43.1 0 43.1 2.75 32.91 36.32 32.91 33.58 43.1"/>
  <path class="cls-1" d="m49.19,60.78c2.21-6.14,0-6.14,0-6.14-1.95,0-5,3.62-5.45,5.29l-4.81,18.99h-11.5l6.95-26.72-6.62-5.72h19.36l-.72,3.96c1.95-1.68,6.24-4.12,10.07-4.12,6.24,0,3.18,9.58,1.62,14.46h-8.9Z"/>
  <path class="cls-1" d="m115.5,72.04c-1.62,3.28-4.41,6.89-10.39,6.89-6.43,0-8.06-3.03-9.03-4.71l-3.81,12.71h-11.75l9-34.14-7.4-6.31h20.98l-1.3,5.13c1.89-1.68,5-4.97,11.63-4.97,6.04,0,6.75,3.62,6.75,6.9s-2.99,15.2-4.68,18.48m-9.94-18.15c-2.01-.08-5.26,3.28-5.71,5.04l-1.62,7.22c-.46,1.68.45,5.38,2.4,5.46,2.99.25,4.42-4.12,4.74-5.21l1.56-6.88c.26-1.1,1.63-5.46-1.37-5.63"/>
  <polygon class="cls-1" points="80.18 46.49 61.54 46.49 66.55 51.28 59.23 78.93 71.54 78.93 80.18 46.49"/>
  <path class="cls-2" d="m144.76,43.67h-19.39s5.11,4.89,5.28,5.05c-.06.21-8.15,30.2-8.15,30.2h12.73l9.54-35.26Z"/>
  <path class="cls-1" d="m180.75,23.89c-2.52,0-4.71,1.85-5.19,4.33-6.27-.21-16.7-.36-27.36-.41.02.34.02.68,0,1.03-.04.6-.14,1.19-.29,1.76,10.79-.04,21.33-.2,27.65-.41.48,2.48,2.67,4.33,5.19,4.33,2.93,0,5.31-2.39,5.31-5.32s-2.38-5.32-5.31-5.32Z"/>
  <path class="cls-1" d="m128.72,35.59c-.05-.05-.1-.09-.15-.14-.11-.11-.21-.22-.31-.33-.04-.04-.07-.07-.11-.11-.12-.14-.24-.29-.35-.44-.05-.05-.09-.11-.13-.17-.08-.1-.15-.21-.22-.31-.02-.04-.05-.07-.08-.12-2.17,1.34-4.06,2.54-5.63,3.58-.83-.79-1.89-1.22-3.03-1.18-1.12.05-2.16.52-2.93,1.35-.76.82-1.16,1.89-1.12,3.02.09,2.31,2.05,4.12,4.37,4.04,2.26-.09,4.04-1.94,4.04-4.2v-.17c-.02-.25-.08-.54-.15-.83.07-.05,1.42-.78,3.16-1.78.95-.55,1.99-1.21,3.04-1.82-.03-.03-.06-.05-.09-.08-.12-.1-.23-.21-.34-.31Z"/>
  <path class="cls-1" d="m127.73,24.06c.08-.11.14-.21.22-.32.07-.09.13-.18.21-.27.07-.08.13-.17.2-.26.06-.05.11-.12.16-.18.07-.08.14-.14.2-.22h0c.07-.08.14-.16.22-.23.04-.04.07-.08.11-.11.06-.06.11-.11.17-.17l-.04-.03c-5.9-4.59-9.44-6.93-11.41-8.08.07-.29.13-.55.13-.8l-.06-.64c-.35-1.82-2.12-3-3.94-2.65-.88.17-1.64.67-2.14,1.42-.38.56-.57,1.21-.57,1.87,0,.22.02.43.06.65.17.88.68,1.64,1.42,2.14.74.51,1.64.69,2.52.51.47-.09.91-.32,1.34-.64.21.17,4.27,3.31,4.27,3.31l6.64,5.14s.06-.09.08-.12c.07-.1.13-.21.2-.31Z"/>
  <path class="cls-1" d="m126.04,28.84c.02-.42.09-.84.17-1.24-9.56.07-34.25.37-42.5.56-.2-2.78-2.69-4.97-5.94-4.97-3.5,0-6.47,2.53-6.65,5.62-.23,3.01,2.45,5.53,5.95,5.53,2.93,0,5.48-1.76,6.34-4.1,8.09.19,33.25.49,42.71.55-.1-.64-.13-1.29-.08-1.96Z"/>
  <path class="cls-1" d="m145.59,34.71c-.07.07-.13.13-.19.2-.04.04-.08.08-.12.12-.1.09-.2.19-.3.28-.01.02-.04.04-.06.05-.12.11-.24.21-.35.32,0,0-.01,0-.02,0-.16.13-.32.26-.48.38-.05.04-.11.09-.16.12.86.54,1.71,1.06,2.54,1.57-.09.28-.15.58-.15.9,0,1.5,1.21,2.72,2.72,2.72s2.71-1.22,2.71-2.72-1.21-2.71-2.71-2.71c-.49,0-.95.13-1.34.35-.65-.56-1.31-1.18-1.99-1.71-.04.04-.07.08-.11.11h0Z"/>
  <path class="cls-1" d="m146.94,23.77c.94-.59,2.57-1.61,3.12-1.94,3.67-2.19,7.67-4.87,11.33-7.4.74.68,1.73,1.09,2.82,1.09,2.32,0,4.21-1.88,4.21-4.2s-1.88-4.21-4.21-4.21-4.2,1.88-4.2,4.21c0,.47.08.92.22,1.34-3.88,2.15-8.03,4.56-11.6,6.87-.61.38-2.62,1.63-3.45,2.14.6.53,1.1,1.12,1.53,1.76.02.02.02.03.04.05.06.1.13.19.19.29Z"/>
  <path class="cls-1" d="m136.48,11.53c-.2,2.49-.41,5.06-.53,7.57.59-.09,1.19-.14,1.79-.14.47,0,.93.03,1.38.08-.02-2.49-.11-5.05-.22-7.52,2.63-.56,4.6-2.9,4.6-5.69,0-3.22-2.61-5.82-5.82-5.82s-5.83,2.61-5.83,5.82c0,2.81,1.99,5.15,4.64,5.7Z"/>
  <path class="cls-2" d="m138.97,21.23c-.44-.06-.89-.11-1.36-.11-.55,0-1.09.05-1.62.14-4.07.67-7.3,3.81-7.51,7.57-.33,4.14,3.35,7.6,8.16,7.6s8.89-3.46,9.12-7.6c.22-3.83-2.7-7.01-6.8-7.6Z"/>
</svg>