<?xml version="1.0" encoding="UTF-8"?> <svg xmlns="http://www.w3.org/2000/svg" id="illu-pricing-bg" width="1920" height="600"><defs><style>.cls-1{fill:none;stroke:#ddd;stroke-miterlimit:10;stroke-width:4px}.cls-2{fill:#26c6da}.cls-3,.cls-9{fill:#fff}.cls-10,.cls-3{fill-rule:evenodd}.cls-4{fill:#f7971c}.cls-5{fill:#e04c3f}.cls-6{fill:#0782c5}.cls-7{fill:#5fc782}.cls-8{fill:#209db2}</style></defs><g id="Illustration"><g id="Travel_Lines" data-name="Travel Lines"><path class="cls-1" d="M138 100v365a50 50 0 01-50 50h-6v-88a50 50 0 0150-50h185"></path><path class="cls-1" d="M610 600v-77a50 50 0 00-50-50H367a50 50 0 01-50-50V295a50 50 0 00-50-50h-37"></path><path class="cls-1" d="M503 307v202a50 50 0 0050 50h116a50 50 0 0050-50v-62.07M1190 600v-17.44a50 50 0 0150-50h531a50 50 0 0050-50V455a50 50 0 00-50-50h-129V257a50 50 0 0150-50h27M1821 65.07v407.75M1532 600V345"></path></g><g id="Circles"><circle class="cls-2" cx="503" cy="307" r="21"></circle><path class="cls-3" d="M516.33 302.25h-2.47l-1.54-2.92a4.59 4.59 0 00-4.05-2.5h-10.54a4.59 4.59 0 00-4.05 2.5l-1.54 2.92h-2.47c-.61 0-1.11.34-1.11.76v1.25a1.06 1.06 0 001.11 1h.21a1.22 1.22 0 00-.16.6v7.23a2.39 2.39 0 001.73 2.34v.57a1.18 1.18 0 001.16 1.2h2.31a1.18 1.18 0 001.15-1.2v-.46h13.86v.46a1.18 1.18 0 001.15 1.2h2.31a1.18 1.18 0 001.16-1.2v-.53a2.39 2.39 0 001.73-2.34v-7.23a1.22 1.22 0 00-.16-.6h.21a1.06 1.06 0 001.11-1V303c0-.41-.5-.75-1.11-.75zm-2.33 8.44a1.73 1.73 0 11-1.73-1.81 1.77 1.77 0 011.73 1.81zm-19.76-8.5l1.08-1.84a3.87 3.87 0 013.35-1.86h8.72a3.87 3.87 0 013.35 1.86l1.08 1.84 1.18 2.11h-20zm-.45 6.69a1.81 1.81 0 11-1.73 1.81 1.77 1.77 0 011.7-1.81zm12.13 2.41h-5.78a.58.58 0 01-.57-.6.58.58 0 01.57-.6h5.78a.58.58 0 01.57.6.58.58 0 01-.6.6z"></path><circle class="cls-2" cx="1642" cy="405" r="21"></circle><path class="cls-3" d="M1639.31 400.79a2.69 2.69 0 112.69 2.81 2.76 2.76 0 01-2.69-2.81zm11.1.49a8.42 8.42 0 10-16.82 0c0 6.69 8.41 16.35 8.41 16.35s8.41-9.63 8.41-16.35z"></path><circle class="cls-4" cx="1719" cy="207" r="21"></circle><path class="cls-3" d="M1709.34 204.51a1.42 1.42 0 011.41-1.42h4a1.42 1.42 0 110 2.84h-4a1.41 1.41 0 01-1.41-1.42zm23.11 2.31a2.3 2.3 0 00-2.31-2.31h-10.92a2.32 2.32 0 00-2.3 2.31v.06h-8.72v-7.09a1.33 1.33 0 00-2.65 0v14.42a1.33 1.33 0 002.65 0v-3.54h21.6v3.53a1.33 1.33 0 102.65 0V208a1.18 1.18 0 00-.1-.5 2.32 2.32 0 00.1-.68z"></path><circle class="cls-5" cx="1821" cy="470" r="21"></circle><path class="cls-3" d="M1834.33 465.25h-2.47l-1.54-2.92a4.59 4.59 0 00-4-2.5h-10.54a4.59 4.59 0 00-4 2.5l-1.54 2.92h-2.47c-.61 0-1.11.34-1.11.76v1.25a1.06 1.06 0 001.11 1h.21a1.22 1.22 0 00-.16.6v7.23a2.39 2.39 0 001.73 2.34v.57a1.18 1.18 0 001.15 1.2h2.32a1.18 1.18 0 001.15-1.2v-.46h13.86v.46a1.18 1.18 0 001.15 1.2h2.32a1.18 1.18 0 001.15-1.2v-.53a2.39 2.39 0 001.73-2.34v-7.23a1.22 1.22 0 00-.16-.6h.21a1.06 1.06 0 001.11-1V466c-.1-.41-.6-.75-1.21-.75zm-2.36 8.44a1.73 1.73 0 11-1.73-1.81 1.77 1.77 0 011.76 1.81zm-19.76-8.5l1.08-1.84a3.87 3.87 0 013.35-1.86h8.72a3.87 3.87 0 013.35 1.86l1.08 1.84 1.24 2.11H1811zm-.45 6.69a1.81 1.81 0 11-1.73 1.81 1.77 1.77 0 011.73-1.81zm12.13 2.41h-5.78a.58.58 0 01-.57-.6.58.58 0 01.57-.6h5.78a.58.58 0 01.57.6.58.58 0 01-.57.6z"></path><circle class="cls-4" cx="230" cy="245" r="21"></circle><path class="cls-3" d="M230.24 236.12a2.72 2.72 0 10-2.77-2.72 2.74 2.74 0 002.77 2.72zM238.28 257l-2.75-6.58a1.84 1.84 0 00-.37-.55l-2.58-2.52v-2l2.73 2.44a1.51 1.51 0 002.11-.09 1.45 1.45 0 00-.1-2.07l-4.74-4.26v-2.06a2.35 2.35 0 00-2.34-2.35H229.8l-.18.05H229.41l-.15.06-5.88 2.35a1.71 1.71 0 00-1 1.37l-.6 5.23a1.71 1.71 0 003.39.38l.49-4.25 2.28-.92v6.24a2.71 2.71 0 000 .41l-2 4.13-3.9 4.26a1.65 1.65 0 00.13 2.36 1.73 1.73 0 002.41-.13l4.06-4.43a1.76 1.76 0 00.27-.4l1.74-3.59 1.85 1.92 2.62 6.27a1.73 1.73 0 002.23.91 1.66 1.66 0 00.93-2.18z"></path><g><circle class="cls-6" cx="317" cy="377" r="21"></circle><path class="cls-3" d="M314.31 372.79a2.69 2.69 0 112.69 2.81 2.76 2.76 0 01-2.69-2.81zm11.1.49a8.42 8.42 0 10-16.82 0c0 6.69 8.41 16.35 8.41 16.35s8.41-9.63 8.41-16.35z"></path></g><g><circle class="cls-5" cx="82" cy="515" r="21"></circle><path class="cls-3" d="M88 522.35a1.47 1.47 0 10-1.5-1.47 1.49 1.49 0 001.5 1.47m-11.4 0a1.47 1.47 0 10-1.5-1.47 1.49 1.49 0 001.5 1.47m5.4-16.76a1.18 1.18 0 10-1.2-1.17 1.18 1.18 0 001.2 1.17m-8.1 4.12a2.37 2.37 0 012.4-2.35h11.4a2.37 2.37 0 012.4 2.35v2.35a4.75 4.75 0 01-4.8 4.7h-6.6a4.75 4.75 0 01-4.8-4.7v-2.35m1.1 15.62a6.44 6.44 0 01-3.53-5.72v-11.5c0-5.68 4.7-7.22 10.5-7.22s10.5 1.54 10.5 7.22v11.5a6.46 6.46 0 01-3.43 5.67l.08.12 1.73 2.71c.35.55.1 1-.56 1H73.82c-.67 0-.92-.45-.57-1L75 525.4v-.07m1.51 1.5a1 1 0 011-1h8.82a1 1 0 110 2.07h-8.74a1 1 0 01-1.05-1.07z"></path></g><g><circle class="cls-7" cx="1532" cy="345" r="21"></circle><path class="cls-3" d="M1544 337.49a1.05 1.05 0 00-.36.08v-2.48a2.83 2.83 0 00-2.84-2.84h-17.66a2.84 2.84 0 00-2.84 2.84v2.48a1.05 1.05 0 00-.36-.08 1.09 1.09 0 00-1.09 1.1v4.55a1.09 1.09 0 001.09 1.1 1 1 0 00.36-.07v8.47a2.82 2.82 0 001.73 2.61h-.27a2.31 2.31 0 002.62 2.5 2.18 2.18 0 002.47-2.27h10.24a2.29 2.29 0 002.61 2.27 2.21 2.21 0 002.48-2.5h-.27a2.85 2.85 0 001.73-2.61v-8.47a1 1 0 00.36.07 1.09 1.09 0 001.09-1.1v-4.54a1.09 1.09 0 00-1.09-1.11zm-16.74-3.74h10.15a1.13 1.13 0 011.12 1v.12a1.13 1.13 0 01-1.12 1.13h-10.15a1.13 1.13 0 010-2.25zm-4.77 6.59a2.85 2.85 0 012.84-2.85h13.28a2.84 2.84 0 012.84 2.85v3.3a2.85 2.85 0 01-2.84 2.85h-13.28a2.84 2.84 0 01-2.84-2.85zm18.23 11.39a1.46 1.46 0 11-1.46-1.5 1.48 1.48 0 011.49 1.5zm-14.58 0a1.46 1.46 0 11-1.46-1.5 1.48 1.48 0 011.49 1.5z"></path></g><g><circle class="cls-6" cx="1821" cy="270" r="21"></circle><path class="cls-3" d="M1818.11 264a1.1 1.1 0 010 .18v1.15a2.48 2.48 0 01-1.39 2l-.88.42-.17.05.23 14.77c0 .58-.71.84-1.28.84s-1.28-.26-1.28-.84l.23-14.77-.17-.05-.88-.42a2.51 2.51 0 01-1.38-2v-1.15a1.09 1.09 0 010-.18.32.32 0 010-.14l.37-6.69c0-.32.17-.58.34-.58s.32.26.34.58l.33 5.69v.5a.66.66 0 00.72.58.66.66 0 00.71-.58v-.49l.32-5.7c0-.32.17-.58.34-.58s.32.26.34.58l.34 5.7v.49a.66.66 0 00.71.58.66.66 0 00.71-.58v-.55l.31-5.64c0-.32.17-.58.34-.58s.32.26.34.58l.4 6.69a.59.59 0 01.01.14zm12.73-1.78c0-3.11-2-5.63-4.51-5.63s-4.51 2.52-4.51 5.63c0 2.63 1.45 4.84 3.4 5.46l-.24 14.79c0 .57.75.83 1.35.83s1.36-.26 1.36-.83l-.25-14.79c1.96-.61 3.4-2.82 3.4-5.45z"></path></g></g><g id="Location_Markers" data-name="Location Markers"><path class="cls-8" d="M1823 122h-4c0-22.88-4.74-31.55-14.42-39.54-7.69-6.35-11.59-15-11.59-25.71C1793 42 1805.56 30 1821 30c15.19 0 27.75 11.8 28 26.31v.43c0 10.72-3.9 19.37-11.59 25.72-9.68 7.99-14.41 16.66-14.41 39.54z"></path><path class="cls-9" d="M1821 39a19 19 0 1019 19 19 19 0 00-19-19z"></path><path class="cls-10" d="M1825.71 63.74a1.15 1.15 0 10-1.18-1.15 1.16 1.16 0 001.18 1.15m-9 0a1.15 1.15 0 10-1.18-1.15 1.16 1.16 0 001.18 1.15m4.29-13.09a.92.92 0 10-.94-.92.93.93 0 00.94.92m-6.36 3.21a1.85 1.85 0 011.88-1.83h9a1.85 1.85 0 011.88 1.83v1.84a3.73 3.73 0 01-3.77 3.68h-5.18a3.73 3.73 0 01-3.77-3.68v-1.84m.88 12.21a5 5 0 01-2.77-4.47v-9c0-4.44 3.69-5.64 8.25-5.64s8.25 1.2 8.25 5.64v9a5 5 0 01-2.7 4.44l.07.09 1.36 2.12c.27.43.07.78-.45.78h-13c-.52 0-.72-.35-.44-.78l1.36-2.12v-.06m1.19 1.17a.82.82 0 01.81-.81h7a.81.81 0 010 1.62h-7a.81.81 0 01-.78-.81z"></path><g><path class="cls-7" d="M140 172h-4c0-22.88-4.74-31.55-14.42-39.54-7.69-6.35-11.59-15-11.59-25.71C110 92 122.56 80 138 80c15.19 0 27.75 11.8 28 26.31v.43c0 10.72-3.9 19.37-11.59 25.72C144.73 140.45 140 149.12 140 172z"></path><path class="cls-9" d="M138 89a19 19 0 1019 19 19 19 0 00-19-19z"></path><path class="cls-10" d="M131.52 107.17h3.14a1.12 1.12 0 000-2.23h-3.14a1.12 1.12 0 000 2.23z"></path><path class="cls-10" d="M148.57 107.86a1.8 1.8 0 00-1.8-1.8h-8.61a1.79 1.79 0 00-1.8 1.8h-6.85v-5.53a1.06 1.06 0 00-1.05-1 1 1 0 00-1 1v11.24a1 1 0 102.09 0v-2.75h17v2.76a1 1 0 002.09 0v-4.87a1 1 0 00-.08-.39 2.09 2.09 0 00.01-.46z"></path></g><g><path class="cls-8" d="M721 462h-4c0-22.88-4.74-31.55-14.42-39.54-7.69-6.35-11.59-15-11.59-25.71C691 382 703.56 370 719 370c15.19 0 27.75 11.8 28 26.31v.43c0 10.72-3.9 19.37-11.59 25.72C725.73 430.45 721 439.12 721 462z"></path><path class="cls-9" d="M719 379a19 19 0 1019 19 19 19 0 00-19-19z"></path><path class="cls-10" d="M716.73 393.32a.66.66 0 010 .14v.9a1.92 1.92 0 01-1.09 1.54l-.68.33h-.14l.18 11.54c0 .45-.56.65-1 .65s-1-.2-1-.65l.18-11.54h-.13l-.69-.33a1.94 1.94 0 01-1.09-1.54v-.9a.66.66 0 010-.14.37.37 0 010-.11l.29-5.23c0-.25.13-.45.27-.45s.25.2.26.45l.27 4.45v.39a.52.52 0 00.56.45.52.52 0 00.56-.45v-.38l.25-4.46c0-.25.13-.45.27-.45s.25.2.26.45l.27 4.46v.38a.52.52 0 00.56.45.52.52 0 00.56-.45v-.43l.25-4.41c0-.25.13-.45.27-.45s.25.2.26.45l.31 5.23a.2.2 0 01-.01.11zm10-1.39c0-2.43-1.58-4.4-3.54-4.4s-3.55 2-3.55 4.4a4.32 4.32 0 002.68 4.25l-.2 11.57c0 .45.59.66 1.07.66s1.06-.21 1.06-.66l-.19-11.57a4.32 4.32 0 002.67-4.25z"></path></g></g></g></svg> 