<?xml version="1.0" encoding="UTF-8"?> <svg xmlns="http://www.w3.org/2000/svg" xmlns:xlink="http://www.w3.org/1999/xlink" width="1920" height="550" viewBox="0 0 1920 550"><defs><style> .cls-1, .cls-2, .cls-22, .cls-23, .cls-24, .cls-25, .cls-9 { fill: none; } .cls-1 { clip-rule: evenodd; } .cls-2 { stroke: #ddd; stroke-width: 4px; } .cls-2, .cls-23, .cls-25 { stroke-miterlimit: 10; } .cls-3 { fill: #dff0fc; } .cls-13, .cls-14, .cls-15, .cls-16, .cls-17, .cls-20, .cls-26, .cls-27, .cls-28, .cls-29, .cls-3, .cls-30, .cls-31, .cls-32, .cls-33, .cls-34, .cls-35, .cls-36, .cls-37, .cls-38, .cls-4, .cls-44, .cls-5, .cls-52, .cls-53, .cls-54, .cls-59, .cls-6, .cls-61, .cls-62, .cls-66, .cls-9 { fill-rule: evenodd; } .cls-4 { fill: #042d48; } .cls-5 { fill: #3fadd1; } .cls-11, .cls-6 { fill: #0d4c6b; } .cls-7 { clip-path: url(#clip-path); } .cls-30, .cls-8 { fill: #26c6da; } .cls-10 { clip-path: url(#clip-path-2); } .cls-12 { fill: #9c6f47; } .cls-13 { fill: #6eca84; } .cls-14 { fill: #e5e5e5; } .cls-16, .cls-18 { fill: #fff; } .cls-17, .cls-41 { fill: #e04c3f; } .cls-19 { fill: #b7e5f1; } .cls-20, .cls-21 { fill: #2b96c3; } .cls-23, .cls-24 { stroke: #0d4c6b; } .cls-23 { stroke-dasharray: 1 1; } .cls-24, .cls-25 { stroke-linecap: round; } .cls-24 { stroke-linejoin: round; } .cls-25 { stroke: #000; } .cls-26, .cls-65 { fill: #1fb7ca; } .cls-27, .cls-64 { fill: #21919e; } .cls-28 { fill: #f7971c; } .cls-29 { fill: #115c65; } .cls-31 { fill: #c9c9c9; } .cls-32 { fill: #313131; } .cls-33, .cls-45 { fill: #41b7cb; } .cls-34 { fill: #333; } .cls-35 { fill: #25c1d5; } .cls-36, .cls-49 { fill: #eee; } .cls-37 { fill: #0782c5; } .cls-38 { fill: #66ca88; } .cls-39 { fill: #209db2; } .cls-40 { fill: #5fc782; } .cls-42 { fill: #c2d3dc; } .cls-43 { fill: #f6f6f6; } .cls-44 { fill: #003b5b; opacity: 0.2; } .cls-46 { fill: #92dde6; } .cls-47, .cls-52 { fill: #232323; } .cls-48 { clip-path: url(#clip-path-3); } .cls-50 { clip-path: url(#clip-path-4); } .cls-51, .cls-61 { fill: #666; } .cls-53, .cls-56 { fill: #c03943; } .cls-54, .cls-55 { fill: #c75857; } .cls-57 { fill: #29303e; } .cls-58 { fill: #e6afb0; } .cls-59 { fill: #f3c67a; } .cls-60 { fill: #abe7c4; } .cls-62 { fill: #50c67c; } .cls-63 { fill: #bed5e8; } .cls-66 { fill: #dfdfdf; } .cls-67 { fill: #131313; } </style><clipPath id="clip-path"><polygon class="cls-1" points="1150.95 517.96 1162.68 517.96 1168.55 501.58 1156.82 501.58 1150.95 517.96"></polygon></clipPath><clipPath id="clip-path-2"><path class="cls-1" d="M1145.1,514.32h11.73a.42.42,0,0,1,.16,0l5.87,3.26a.22.22,0,0,1,.11.27.27.27,0,0,1-.27.17H1151a.29.29,0,0,1-.16,0l-5.87-3.25a.22.22,0,0,1-.11-.27.27.27,0,0,1,.27-.18"></path></clipPath><clipPath id="clip-path-3"><path id="SVGID" class="cls-1" d="M622.28,353.59H613c-5,6.86-9.56,18.33-8.44,37.41h16.67Z"></path></clipPath><clipPath id="clip-path-4"><path id="SVGID-2" data-name="SVGID" class="cls-1" d="M612.64,353.59h-1.12c-5.73,6.86-11.07,18.33-9.77,37.41h3.45c.09-5.21.25-15.33.25-19.13C605.45,366.65,612.64,353.59,612.64,353.59Z"></path></clipPath></defs><g id="illu-sap-hero"><g id="Illustration"><g><g id="Lines"><path class="cls-2" d="M1680,85V230a40,40,0,0,1-40,40H1524"></path><path class="cls-2" d="M1770,180H1565a40,40,0,0,0-40,40v81.16a40,40,0,0,1-40.19,40l-209.62-1a40,40,0,0,0-40.19,40v104.7a40,40,0,0,1-40.11,40L722,525a40,40,0,0,1-40-40V450"></path><path class="cls-2" d="M1400,180V480a40,40,0,0,0,40,40h95a40,40,0,0,0,40-40V405.31"></path><path class="cls-2" d="M257,105V445a40,40,0,0,0,40,40H542a40,40,0,0,1,40,40h0"></path><path class="cls-2" d="M682,450v35a40,40,0,0,1-40,40H415a40,40,0,0,1-40-40V390a40,40,0,0,1,40-40h75V210a40,40,0,0,0-40-40H150"></path></g><g id="Illustrations"><g><path class="cls-3" d="M1186,523l-18.12-14.37a34.56,34.56,0,0,0-35.28-3.23l-8.27,4a33,33,0,0,1-21.51,2.43l-17.86-4a33,33,0,0,0-19.69,1.63q-13.32,5.42-19.67,7c-5.6,1.36-12.8,4.36-21.6,6.64C1024,523,1180.21,522.76,1186,523Z"></path><g><g><path class="cls-4" d="M1132.3,523a.71.71,0,0,1-.56-.24l-8.21-9.29-14.67,9.41a.8.8,0,0,1-.75,0,.57.57,0,0,1-.38-.54l1.08-25.82a.6.6,0,0,1,.49-.54.77.77,0,0,1,.77.21l13.77,15.59a.79.79,0,0,1,.75.21.52.52,0,0,1,0,.68l8.24,9.34a.53.53,0,0,1-.14.82A.81.81,0,0,1,1132.3,523Zm-22.16-24.7-1,22.88,13.5-8.66Z"></path><polygon class="cls-5" points="1116.19 516.69 1101.66 516.69 1094.4 496.59 1108.93 496.59 1116.19 516.69"></polygon><path class="cls-6" d="M1117.57,523a.75.75,0,0,1-.57-.24l-8.2-9.29-14.67,9.41a.8.8,0,0,1-.75,0,.57.57,0,0,1-.38-.54l1.07-25.82a.61.61,0,0,1,.5-.54.77.77,0,0,1,.77.21l13.77,15.59a.79.79,0,0,1,.75.21.52.52,0,0,1,0,.68l8.24,9.34a.53.53,0,0,1-.14.82A.81.81,0,0,1,1117.57,523Zm-22.16-24.7-1,22.88,13.51-8.66Z"></path><path class="cls-6" d="M1123.56,512.55H1109a.41.41,0,0,0-.19.05l-7.26,4a.28.28,0,0,0-.15.33.36.36,0,0,0,.34.21h14.52c.07,0,2.13,0,.2,0l7.26-4a.27.27,0,0,0,.14-.33.34.34,0,0,0-.33-.22"></path></g><path class="cls-4" d="M1138.23,522.9a.44.44,0,0,1-.12-.67l6.66-7.6a.44.44,0,0,1,0-.56.65.65,0,0,1,.61-.17l11.12-12.7a.63.63,0,0,1,.63-.18.51.51,0,0,1,.4.45l.86,21a.48.48,0,0,1-.3.45.69.69,0,0,1-.61-.05l-11.85-7.67-6.63,7.58a.62.62,0,0,1-.45.19A.59.59,0,0,1,1138.23,522.9Zm8.1-8.44,10.91,7.06-.77-18.65Z"></path><g class="cls-7"><rect class="cls-8" x="1146.06" y="496.69" width="27.39" height="26.17"></rect></g><polygon class="cls-9" points="1150.95 517.96 1162.68 517.96 1168.55 501.58 1156.82 501.58 1150.95 517.96"></polygon><path class="cls-6" d="M1149.81,522.9a.43.43,0,0,1-.11-.67l6.65-7.6a.44.44,0,0,1,0-.56.65.65,0,0,1,.61-.17l11.12-12.7a.61.61,0,0,1,.62-.18.51.51,0,0,1,.4.45l.87,21a.48.48,0,0,1-.31.45.67.67,0,0,1-.6-.05l-11.85-7.67-6.63,7.58a.63.63,0,0,1-.46.19A.61.61,0,0,1,1149.81,522.9Zm8.1-8.44,10.92,7.06-.77-18.65Z"></path><g class="cls-10"><rect class="cls-11" x="1139.92" y="509.43" width="27.96" height="13.53"></rect></g></g><g><path class="cls-12" d="M1055.89,522.31a1.5,1.5,0,0,1-1.43-1c-5.29-17.08-2.46-30.4.85-38.56a43.44,43.44,0,0,1,8.64-13.88,1.5,1.5,0,1,1,2.1,2.14c-.21.21-18.3,18.51-8.73,49.41a1.48,1.48,0,0,1-1,1.87A1.31,1.31,0,0,1,1055.89,522.31Z"></path><path class="cls-13" d="M1085.29,465.63c-.74-.94-7.91-2.73-13.7-1a41.36,41.36,0,0,0-6.93,2.66c-1.35-1.06-4.54-2.46-8.55-3.66-5.79-1.72-13,.07-13.7,1s5.24.68,11,2.41l3.91,1.34-3.68,1.82c-5.88,1.46-8.81,6.34-8.27,7.44s4.36-2,10.24-3.46a34.46,34.46,0,0,0,8.2-3,34.46,34.46,0,0,0,8.2,3c5.88,1.46,9.69,4.56,10.23,3.46s-2.38-6-8.26-7.44c-1.64-.41-3.22-.72-4.66-.94,1.52-.3,3.18-.71,4.89-1.22C1080,466.32,1086,466.58,1085.29,465.63Z"></path><path class="cls-12" d="M1069.14,522.41a1.51,1.51,0,0,1-1.47-1.21c-4.83-24,6.67-38.57,7.16-39.18a1.5,1.5,0,0,1,2.34,1.89c-.17.21-11.09,14.2-6.56,36.7a1.51,1.51,0,0,1-1.17,1.77Z"></path><path class="cls-13" d="M1093,478.61c-.54-.94-5.84-2.73-10.12-1a60.6,60.6,0,0,1-6.27,1.71s-3.3-.87-5.39-1.71c-4.28-1.72-9.58.07-10.12,1s3.45.72,7.52,2.18c-.43.12-.88.25-1.32.4-4.41,1.46-6.61,6.34-6.2,7.44s3.27-2,7.67-3.46c2.31-.76,6.9-2.23,7.55-2.3l7,2.3c4.4,1.46,7.26,4.56,7.67,3.46s-1.79-6-6.2-7.44l-.21-.06.26-.1C1089.08,479.3,1093.5,479.56,1093,478.61Z"></path></g><path class="cls-14" d="M1108.28,460.8a4.59,4.59,0,0,1,1.61.29c0-.09,0-.19,0-.29,0-3.76,2.48-6.8,5.55-6.8a5.52,5.52,0,0,1,4.88,3.56,4.48,4.48,0,0,1,.82-.09c2.34,0,4.34,1.8,5.13,4.32a3.74,3.74,0,0,1,2.49-1c2.35,0,4.25,2.33,4.25,5.2h-30c.53-3,2.69-5.2,5.28-5.2"></path></g><g id="Calendar_Icon" data-name="Calendar Icon"><polygon class="cls-15" points="412.98 142 413.64 167 400 167 405.35 142 412.98 142"></polygon><polygon class="cls-16" points="434.53 142 442 167 413.07 167 405.61 142 434.53 142"></polygon><polygon class="cls-17" points="434.53 142 435.59 145.53 406.66 145.53 405.61 142 434.53 142"></polygon><path class="cls-18" d="M429.21,144.49h2.58a.47.47,0,0,0,.45-.66,1,1,0,0,0-.84-.65h-2.59a.47.47,0,0,0-.45.65A1,1,0,0,0,429.21,144.49Z"></path><path class="cls-18" d="M410.22,144.49h2.59a.48.48,0,0,0,.45-.66,1,1,0,0,0-.85-.65h-2.58a.47.47,0,0,0-.45.65A1,1,0,0,0,410.22,144.49Z"></path><path d="M429.71,161.56h-2.82L424.26,149a.51.51,0,0,0-.88-.22l-1.9,2.24a.52.52,0,0,0,.06.72.5.5,0,0,0,.71-.06l1.24-1.45,2.37,11.34H423.3a.51.51,0,1,0,0,1h6.41a.51.51,0,1,0,0-1Z"></path></g><g id="Clock_Tower" data-name="Clock Tower"><rect class="cls-19" x="320" y="406" width="10" height="5"></rect><polygon class="cls-20" points="319 406 331 406 331 397 330 397 330 404 325 384 320 404 320 397 319 397 319 406"></polygon><rect class="cls-19" x="316" y="419" width="18" height="64"></rect><rect class="cls-19" x="314" y="422" width="22" height="20"></rect><path class="cls-20" d="M336,442a2,2,0,0,0-2,2H316a2,2,0,0,0-2-2Z"></path><path class="cls-20" d="M322,479V446.5a.5.5,0,0,1,1,0V479Z"></path><path class="cls-20" d="M327,479V446.5a.5.5,0,0,1,1,0V479Z"></path><path class="cls-20" d="M331,479V446.5a.5.5,0,0,1,1,0V479Z"></path><path class="cls-5" d="M334,440V423.5a.5.5,0,0,1,1,0V440Z"></path><path class="cls-5" d="M315,440V423.5a.5.5,0,0,1,1,0V440Z"></path><rect class="cls-21" x="324.5" y="380" width="1" height="10"></rect><path class="cls-20" d="M318,479V446.5a.5.5,0,0,1,1,0V479Z"></path><path class="cls-21" d="M336,413h-1v4l-5-6H320l-5,6v-4h-1v5a2,2,0,0,0,2,2h18a2,2,0,0,0,2-2Z"></path><path class="cls-6" d="M318,416h4a2,2,0,0,0-4,0Z"></path><path class="cls-6" d="M328,416h4a2,2,0,0,0-4,0Z"></path><path class="cls-6" d="M323,416h4a2,2,0,0,0-4,0Z"></path><path class="cls-6" d="M323,402h4a2,2,0,0,0-4,0Z"></path><rect class="cls-21" x="318" y="425" width="14" height="14"></rect><circle class="cls-18" cx="325" cy="432" r="6"></circle><circle class="cls-22" cx="325" cy="431.9" r="4.5"></circle><circle class="cls-23" cx="325" cy="432" r="5"></circle><path class="cls-20" d="M318,423v-1.5a.5.5,0,0,1,1,0V423Z"></path><path class="cls-20" d="M322,423v-1.5a.5.5,0,0,1,1,0V423Z"></path><path class="cls-20" d="M327,423v-1.5a.5.5,0,0,1,1,0V423Z"></path><path class="cls-20" d="M331,423v-1.5a.5.5,0,0,1,1,0V423Z"></path><polyline class="cls-24" points="327.5 430.76 325 432 322.5 430.4"></polyline></g><g id="Calendar_Icon-2" data-name="Calendar Icon"><polygon class="cls-15" points="1611.78 150 1611.06 178 1626 178 1620.14 150 1611.78 150"></polygon><polygon class="cls-16" points="1588.18 150 1580 178 1611.68 178 1619.86 150 1588.18 150"></polygon><polygon class="cls-17" points="1588.18 150 1587.02 153.96 1618.7 153.96 1619.86 150 1588.18 150"></polygon><path class="cls-18" d="M1594,152.79h-2.83a.52.52,0,0,1-.49-.74,1,1,0,0,1,.92-.73h2.83a.52.52,0,0,1,.49.73A1,1,0,0,1,1594,152.79Z"></path><path class="cls-18" d="M1614.8,152.79H1612a.52.52,0,0,1-.49-.74,1,1,0,0,1,.92-.73h2.83a.52.52,0,0,1,.49.73A1,1,0,0,1,1614.8,152.79Z"></path><path class="cls-25" d="M1593.25,160.51a3.81,3.81,0,0,1,3.1-2.55h.13c1.76,0,2.35,2,1.13,3.69l-7.75,10.85H1596"></path><path class="cls-25" d="M1600.84,160.51a3.82,3.82,0,0,1,3.1-2.55h.13c1.76,0,2.35,2,1.13,3.69l-7.75,10.85h6.12"></path></g><g id="Liberty"><path class="cls-26" d="M1498.49,446.56c-3.54-2.49-2.79,4.5-4.52,6.86l-.2,43.46a118.65,118.65,0,0,0,10.62-12.43,179.91,179.91,0,0,1-.59-19.26Q1502,449.05,1498.49,446.56Z"></path><polygon class="cls-27" points="1474.9 433.51 1474.9 433.51 1485.51 434.75 1485.51 432.27 1474.9 433.51"></polygon><path class="cls-27" d="M1498.25,458.36c.17.06,8.49,6.6,8.49,6.6l-7.21,8.31Z"></path><path class="cls-28" d="M1472.89,388.32a13.64,13.64,0,0,1-.74,4.76c-.6,1.39-1.87,2.65-1.87,5,0,2.79,1.89,5.35,4.41,5.35s5-2.28,5-6.84c0-5.7-4.94-10.55-4.94-10.55a16.63,16.63,0,0,1,.63,3.37,7.43,7.43,0,0,1-.73,2.68s-.41-2.94-1.79-3.73"></path><path class="cls-17" d="M1474.75,394s.6,1.39-1.08,2.74h0a2.67,2.67,0,0,0-1,2.13,2.37,2.37,0,1,0,4.72,0,6.7,6.7,0,0,0-2.61-4.87"></path><path class="cls-16" d="M1474.87,397.68a1.2,1.2,0,0,1-.54,1.37,1.31,1.31,0,0,0-.51,1.06,1.19,1.19,0,1,0,2.36,0,3.35,3.35,0,0,0-1.31-2.43"></path><path class="cls-29" d="M1480.45,460.47a2.66,2.66,0,0,1-2.27-1.29,42.2,42.2,0,0,1-5.64-20.8l.56-18c0-1.58.65-2.15,2.15-2.15s2.2,1,2.2,2.57l.51,17.58a36.49,36.49,0,0,0,4.75,17.67,3,3,0,0,1-.78,4,2.63,2.63,0,0,1-1.48.46"></path><polygon class="cls-29" points="1507.04 480.73 1497.31 475.67 1505.27 458.36 1515 463.42 1507.04 480.73"></polygon><polygon class="cls-27" points="1479.62 444.69 1479.62 444.69 1479.62 444.69 1487.87 437.54 1487.14 436.77 1486.4 436 1479.62 444.69"></polygon><path class="cls-30" d="M1493.83,444.59a5.41,5.41,0,0,1,2.62,1.35s1.69,11.94,2.38,20.23L1503.2,518h-28.47s1.48-26.09,1.87-31,1.8-24,1.8-24-5.28-14.44-5.86-16.59c3.15-2.86,7.92-6.65,7.92-6.65l4.92,4.87s.81-.72,3.62-.72A45,45,0,0,1,1493.83,444.59Z"></path><path class="cls-29" d="M1498.83,466.17,1503.2,518h-28.47"></path><path class="cls-27" d="M1500.63,487.46l.81,10L1474.73,518l.17-3.73Z"></path><path class="cls-30" d="M1475,514.27c6-4.86,17.92-15.44,25.66-26.81L1499,466.23c-.7-8.31-2.32-20.29-2.32-20.29a6.45,6.45,0,0,0-3-1.69,23.12,23.12,0,0,0-4.64-.37c-2.83,0-3.65.72-3.65.72l-5-4.88s-4.81,3.8-8,6.67c.58,2.15,5.91,16.62,5.91,16.62s-1.43,19.13-1.82,24.07c-.3,3.75-1.23,19.71-1.66,27.19"></path><path class="cls-27" d="M1497.23,445.94h-.51l-4.72,7.45s-10.06,11.28-14.15,16.77c-.11,1.43-.59,8.7-.59,8.7s10.42-11.39,13.07-15.09c2.36-3.31,7.58-15.35,7.58-15.35-.05-.37,0-.36,0-.62C1497.72,446.3,1497.61,446.19,1497.23,445.94Z"></path><path class="cls-27" d="M1498.05,456.8l-.26-2.17c-2,6.22-3.63,11.19-6.38,14.91a118.45,118.45,0,0,1-14.74,15.53c-.08,1-.19,3-.36,6.22q11.87-15.56,14.51-19.26C1493.19,468.72,1498.44,457.05,1498.05,456.8Z"></path><path class="cls-16" d="M1490,450h0c2,0,3.54-1.91,3.54-4.27v-1.24c-1.72-.31-3.54-.49-3.54-.49a8,8,0,0,0-3.54.61v1.12c0,2.36,1.58,4.27,3.54,4.27"></path><path class="cls-30" d="M1490,438.48a2.55,2.55,0,0,0-2.36,2.69v4.88c0,1.49,1.06,2.95,2.36,2.95Z"></path><polygon class="cls-27" points="1500.85 444.69 1500.85 444.69 1500.85 444.69 1492.59 437.54 1493.32 436.77 1494.06 436 1500.85 444.69"></polygon><path class="cls-30" d="M1494.72,438.56a4.72,4.72,0,1,1-9.44,0v-3.88a4.72,4.72,0,1,1,9.44,0Z"></path><polygon class="cls-27" points="1490 418.6 1490 418.6 1490 418.6 1488.82 429.78 1490 429.78 1491.18 429.78 1490 418.6"></polygon><polygon class="cls-27" points="1478.44 422.33 1478.44 422.33 1478.44 422.33 1478.44 422.33 1478.44 422.33 1485.23 431.03 1485.96 430.25 1486.69 429.48 1478.44 422.33"></polygon><path class="cls-16" d="M1485.28,438.48a34.34,34.34,0,0,1,0-3.83s2.24-3.81,4.72-1.79A7.65,7.65,0,0,1,1485.28,438.48Z"></path><polygon class="cls-27" points="1502.03 422.33 1502.03 422.33 1502.03 422.33 1502.03 422.33 1502.03 422.33 1495.24 431.03 1494.5 430.25 1493.77 429.48 1502.03 422.33"></polygon><polygon class="cls-27" points="1504.38 433.51 1504.38 433.51 1494.95 434.75 1494.95 433.51 1494.95 432.27 1504.38 433.51"></polygon><path class="cls-27" d="M1490,432.89V449c1.3,0,2.38-1.44,2.4-2.88l0-3.37a5,5,0,0,0,2.34-4.29v-.6A4.91,4.91,0,0,0,1490,432.89Z"></path><path class="cls-31" d="M1490,432.86a8.19,8.19,0,0,0,4.87,5.77,19.63,19.63,0,0,0-.15-4s-2.24-3.81-4.72-1.79"></path><path class="cls-30" d="M1490,428.54c-3.94,0-5.9,2.33-5.9,5.18,0,4,1.16,4.76,1.16,4.76,0-3.55,1.79-5.24,4.74-5.24s5,1.34,5,4.9c0,0,.91-.38.91-4.42C1495.9,430.87,1493.94,428.54,1490,428.54Z"></path><path class="cls-32" d="M1490,430.07c-3.61,0-5.8,2-5.9,6.13.33,2.11,1.16,2.69,1.16,2.69,0-3.68,1.71-5.55,4.74-5.55s4.87,1.75,4.87,5.43c0,0,.7-.46,1-2.57C1495.8,432.06,1493.61,430.07,1490,430.07Z"></path><path class="cls-30" d="M1511,476.18a1.56,1.56,0,0,1-2.13.63,1.62,1.62,0,0,1-.76-2.13l1.52-3.08a1.53,1.53,0,0,1,2.12-.62,1.62,1.62,0,0,1,.77,2.12Z"></path><path class="cls-31" d="M1474,409.49v13.75a1.11,1.11,0,0,0,1,1.2V408.29a1.11,1.11,0,0,0-1,1.2"></path><path class="cls-32" d="M1476,423.24V409.49a1.11,1.11,0,0,0-1-1.2v16.15a1.11,1.11,0,0,0,1-1.2"></path><path class="cls-31" d="M1480.6,404h-11.2a1.45,1.45,0,0,0-1.4,1.5h14a1.45,1.45,0,0,0-1.4-1.5"></path><path class="cls-27" d="M1477.26,418.66a1.91,1.91,0,0,1-1.69,2.06h-1.34a1.91,1.91,0,0,1-1.69-2.06v-4.59a1.9,1.9,0,0,1,1.69-2.05h1.34a1.9,1.9,0,0,1,1.69,2.05Z"></path><polygon class="cls-31" points="1472.64 407 1475 407 1475 412.02 1474.06 412.02 1472.64 407"></polygon><polygon class="cls-27" points="1475.93 456.1 1485.38 444.58 1478.4 462.96 1475.93 456.1"></polygon><polygon class="cls-32" points="1477.36 407 1475 407 1475 412.02 1475.94 412.02 1477.36 407"></polygon><path class="cls-32" d="M1469.4,407h11.2a1.45,1.45,0,0,0,1.4-1.5h-14a1.45,1.45,0,0,0,1.4,1.5"></path><path class="cls-27" d="M1499.84,476.37c-.29-3.33-.15-2.47-.36-5A101.09,101.09,0,0,1,1475.87,499c-.11,1.84-.22,3.73-.33,5.59C1485.38,493.62,1494.61,481.72,1499.84,476.37Z"></path></g><g id="Car"><path class="cls-15" d="M491.76,470.15h-2.22c-2.47,0-4.46,2.88-4.46,6.42s2,6.43,4.46,6.43h2.22c2.46,0,4.46-2.88,4.46-6.43s-2-6.42-4.46-6.42"></path><path class="cls-15" d="M450.13,470.15H447.9c-2.46,0-4.46,2.88-4.46,6.42s2,6.43,4.46,6.43h2.23c2.46,0,4.46-2.88,4.46-6.43s-2-6.42-4.46-6.42"></path><path class="cls-28" d="M481.59,466.87l3.67-.3a1.35,1.35,0,0,0,0-2.7l-2.21-.18a1.35,1.35,0,0,0-1.46,1.35Z"></path><path class="cls-28" d="M485.26,466.57l-1.67.14a.87.87,0,0,1,.87-.87h1.9a1.38,1.38,0,0,1-1.1.73"></path><path class="cls-28" d="M461.47,457.3h3.37C474,457.3,485,465,485,465l12.31,4.72c1.72.66,2.92,2.91,2.92,5.47v5.17h-49.4l-6.17-23.09Z"></path><path class="cls-33" d="M464.84,458.38H448.67v6.47h34.06c-3.36-2.08-11.25-6.47-17.89-6.47"></path><rect x="426.11" y="469.23" width="12.66" height="11.16"></rect><rect x="461.11" y="469.23" width="12.66" height="11.16"></rect><path class="cls-15" d="M433.71,483c2.46,0,4.46-2.88,4.46-6.42s-2-6.43-4.46-6.43h-2.22V483Z"></path><path class="cls-34" d="M436,476.57c0,3.55-2,6.43-4.46,6.43s-4.46-2.88-4.46-6.43,2-6.42,4.46-6.42S436,473,436,476.57"></path><path class="cls-16" d="M434.45,476.57c0,2.36-1.32,4.27-3,4.27s-3-1.91-3-4.27,1.32-4.26,3-4.26,3,1.91,3,4.26"></path><path class="cls-15" d="M470.4,483c2.47,0,4.47-2.88,4.47-6.42s-2-6.43-4.47-6.43h-2.22V483Z"></path><path class="cls-34" d="M472.64,476.57c0,3.55-2,6.43-4.46,6.43s-4.46-2.88-4.46-6.43,2-6.42,4.46-6.42,4.46,2.88,4.46,6.42"></path><path class="cls-16" d="M471.15,476.57c0,2.36-1.33,4.27-3,4.27s-3-1.91-3-4.27,1.33-4.26,3-4.26,3,1.91,3,4.26"></path><path class="cls-28" d="M477.11,469.75,464.8,465s-11-7.73-20.15-7.73h-3.37c-8.18,0-19.22,5.48-19.22,5.48v7.91a12.7,12.7,0,0,0-2.06,7.16v2.54h6.12v-3.77c0-3.85,2.16-7,4.83-7s4.84,3.11,4.84,7v3.77h26.95v-3.77c0-3.85,2.17-7,4.84-7s4.83,3.11,4.83,7v3.77H480v-5.17c0-2.56-1.2-4.81-2.92-5.47"></path><path class="cls-16" d="M444.65,458.38h-3.37c-4.35,0-9.61,1.64-13.45,3.1a1.21,1.21,0,0,0-.6,1.75l1.63,2.68h33.48a.55.55,0,0,0,.29-1c-3.31-2-11.28-6.52-18-6.52"></path><polygon class="cls-17" points="422.06 462.78 424.44 464.92 424.44 466.94 422.06 470.69 422.06 462.78"></polygon><polygon class="cls-28" points="446.12 466.74 443.68 466.74 443.01 458.04 444.65 458.04 446.12 466.74"></polygon><polygon class="cls-28" points="430.37 466.18 432.27 466.18 432.79 459.4 431.51 459.4 430.37 466.18"></polygon><path class="cls-28" d="M461,466.87l-3.67-.3a1.35,1.35,0,0,1,0-2.7l2.21-.18A1.35,1.35,0,0,1,461,465Z"></path><path class="cls-28" d="M461.62,466.8l-.63-.47h-.55a.3.3,0,0,0-.25.48l.61.87a.61.61,0,0,0,.43.27.58.58,0,0,0,.63-.58v-.11a.57.57,0,0,0-.24-.46"></path><path class="cls-16" d="M481.42,472.62h-5.29a3.37,3.37,0,0,1-2.34-.95l-1-.93a.63.63,0,0,1,.44-1.08h5.29a3.37,3.37,0,0,1,2.34.95l.95.92a.63.63,0,0,1-.44,1.09"></path><path class="cls-16" d="M498.15,470.24a2.67,2.67,0,0,0-.46.37l-.95.92a.63.63,0,0,0,.44,1.09h2.6a5.22,5.22,0,0,0-1.63-2.38"></path><path class="cls-16" d="M479.49,477.54a.72.72,0,1,1-.7-.93,1,1,0,0,1,.7.93"></path><path class="cls-16" d="M498.59,477.54a.72.72,0,1,1-.7-.93,1,1,0,0,1,.7.93"></path></g><g id="Plane"><path class="cls-35" d="M401,264v2.63h21.95L423,264l1.82-7.42.87-3.54,2-8h-6.56a3.28,3.28,0,0,0-2.56,1.22L408,259.33l-1.48,1.83-.79,1a4.88,4.88,0,0,1-3.82,1.83Z"></path><path class="cls-36" d="M418.29,263.85H330.73c-4.28,0-6.91.24-9.72,1.34s-3.67,2.64-6.12,3.86-4.89,2.33-4.89,4.59,2.32,4,5.56,5,5.87,1.65,12.66,1.65h62.5a27,27,0,0,0,10.35-2.05l24.17-10.14a1,1,0,0,0,.63-.95v-2.19a1,1,0,0,0-.83-1Z"></path><g id="Windows"><path class="cls-37" d="M386.28,269h0a.82.82,0,0,0,.82-.82v-.81a.82.82,0,0,0-.82-.82.82.82,0,0,0-.81.82v.81a.82.82,0,0,0,.81.82"></path><path class="cls-37" d="M389.29,269h0a.82.82,0,0,0,.81-.82v-.81a.82.82,0,0,0-.81-.82.82.82,0,0,0-.82.82v.81a.82.82,0,0,0,.82.82"></path><path class="cls-37" d="M392.29,269h0a.82.82,0,0,0,.82-.82v-.81a.82.82,0,0,0-.82-.82.82.82,0,0,0-.81.82v.81a.82.82,0,0,0,.81.82"></path><path class="cls-37" d="M395.3,269h0a.82.82,0,0,0,.82-.82v-.81a.82.82,0,0,0-.82-.82.82.82,0,0,0-.81.82v.81a.82.82,0,0,0,.81.82"></path><path class="cls-37" d="M338.18,269h0a.82.82,0,0,0,.81-.82v-.81a.82.82,0,0,0-.81-.82.82.82,0,0,0-.82.82v.81a.82.82,0,0,0,.82.82"></path><path class="cls-37" d="M341.19,269h0a.82.82,0,0,0,.81-.82v-.81a.82.82,0,0,0-.81-.82.82.82,0,0,0-.82.82v.81a.82.82,0,0,0,.82.82"></path><path class="cls-37" d="M335.17,269h0a.82.82,0,0,0,.82-.82v-.81a.82.82,0,0,0-.82-.82.82.82,0,0,0-.81.82v.81a.82.82,0,0,0,.81.82"></path><path class="cls-37" d="M344.19,269h0a.82.82,0,0,0,.82-.82v-.81a.82.82,0,0,0-.82-.82.82.82,0,0,0-.81.82v.81a.82.82,0,0,0,.81.82"></path><path class="cls-37" d="M347.2,269h0a.82.82,0,0,0,.81-.82v-.81a.82.82,0,0,0-.81-.82.82.82,0,0,0-.82.82v.81a.82.82,0,0,0,.82.82"></path><path class="cls-37" d="M350.2,269h0a.82.82,0,0,0,.82-.82v-.81a.82.82,0,0,0-.82-.82.82.82,0,0,0-.81.82v.81a.82.82,0,0,0,.81.82"></path><path class="cls-37" d="M353.21,269h0a.82.82,0,0,0,.82-.82v-.81a.82.82,0,0,0-.82-.82.82.82,0,0,0-.81.82v.81a.82.82,0,0,0,.81.82"></path><path class="cls-37" d="M356.22,269h0a.82.82,0,0,0,.81-.82v-.81a.82.82,0,0,0-.81-.82.82.82,0,0,0-.82.82v.81a.82.82,0,0,0,.82.82"></path><path class="cls-37" d="M359.22,269h0a.82.82,0,0,0,.82-.82v-.81a.82.82,0,0,0-.82-.82.82.82,0,0,0-.81.82v.81a.82.82,0,0,0,.81.82"></path><path class="cls-37" d="M362.23,269h0a.82.82,0,0,0,.82-.82v-.81a.82.82,0,0,0-.82-.82.82.82,0,0,0-.81.82v.81a.82.82,0,0,0,.81.82"></path><path class="cls-37" d="M365.24,269h0a.82.82,0,0,0,.81-.82v-.81a.82.82,0,0,0-.81-.82.82.82,0,0,0-.82.82v.81a.82.82,0,0,0,.82.82"></path><path class="cls-37" d="M368.24,269h0a.82.82,0,0,0,.82-.82v-.81a.82.82,0,0,0-.82-.82.82.82,0,0,0-.81.82v.81a.82.82,0,0,0,.81.82"></path><path class="cls-37" d="M371.25,269h0a.82.82,0,0,0,.81-.82v-.81a.82.82,0,0,0-.81-.82.82.82,0,0,0-.82.82v.81a.82.82,0,0,0,.82.82"></path><path class="cls-37" d="M374.26,269h0a.82.82,0,0,0,.81-.82v-.81a.82.82,0,0,0-.81-.82.82.82,0,0,0-.82.82v.81a.82.82,0,0,0,.82.82"></path><path class="cls-37" d="M377.26,269h0a.82.82,0,0,0,.82-.82v-.81a.82.82,0,0,0-.82-.82.82.82,0,0,0-.81.82v.81a.82.82,0,0,0,.81.82"></path><path class="cls-37" d="M380.27,269h0a.82.82,0,0,0,.81-.82v-.81a.82.82,0,0,0-.81-.82.82.82,0,0,0-.82.82v.81a.82.82,0,0,0,.82.82"></path><path class="cls-37" d="M383.28,269h0a.82.82,0,0,0,.81-.82v-.81a.82.82,0,0,0-.81-.82.82.82,0,0,0-.82.82v.81a.82.82,0,0,0,.82.82"></path><path class="cls-37" d="M315.13,268.93h4.68a1.24,1.24,0,0,0,.85-.35,1.2,1.2,0,0,0,.35-.81v0a1.2,1.2,0,0,0-1.2-1.19h-1.28c-.56.4-1.07.82-1.61,1.23a13.87,13.87,0,0,1-1.79,1.16"></path><path class="cls-37" d="M322.63,267.36v.81a.82.82,0,0,0,.81.82.82.82,0,0,0,.82-.82v-.81a.82.82,0,0,0-.82-.82.78.78,0,0,0-.57.24.81.81,0,0,0-.24.58"></path></g><g id="Wing"><path class="cls-35" d="M344.68,274.9h32.1a2.68,2.68,0,0,1,0,5.35h-32.1a2.68,2.68,0,1,1,0-5.35"></path><path class="cls-28" d="M346.05,276.77,389,269.61q.79-.14,1.59-.21h0a16.41,16.41,0,0,0,7.46-3.53,3.73,3.73,0,0,1,2.37-.84l-.83,2a5.94,5.94,0,0,1-3.23,3.19l-20.18,8.28H346.22a.87.87,0,0,1-.86-.7.84.84,0,0,1,.69-1"></path><g id="Engine"><path class="cls-38" d="M346.93,278.09v7.07a1.22,1.22,0,0,0,1.22,1.23h5.12a51.07,51.07,0,0,0,10.61-1.29c1.1-.24,2.08-.48,2.88-.68l1.1-.27v-5l-1.1-.27c-.8-.2-1.78-.44-2.88-.68a51.07,51.07,0,0,0-10.61-1.29h-5.12a1.22,1.22,0,0,0-1.22,1.22"></path><path class="cls-35" d="M366.76,278.84v5.58l1.1-.27v-5l-1.1-.27"></path><path class="cls-37" d="M363.88,278.16v6.94c1.1-.24,2.08-.48,2.88-.68v-5.58c-.8-.2-1.78-.44-2.88-.68"></path><path class="cls-37" d="M346.93,278.09v7.07a1.22,1.22,0,0,0,1.22,1.23h.65v-9.52h-.65a1.22,1.22,0,0,0-1.22,1.22"></path></g></g><path class="cls-35" d="M424,263.9v4.68l1.23-.52a1,1,0,0,0,.63-.87v-2.27a.76.76,0,0,0,0-.15,1,1,0,0,0-.82-.86Z"></path></g></g><g id="Small_Icons" data-name="Small Icons"><g><circle class="cls-39" cx="1575" cy="405" r="21"></circle><path class="cls-16" d="M1572.31,400.79a2.69,2.69,0,1,1,2.69,2.81A2.76,2.76,0,0,1,1572.31,400.79Zm11.1.49a8.42,8.42,0,1,0-16.82,0c0,6.69,8.41,16.35,8.41,16.35S1583.41,408,1583.41,401.28Z"></path></g><g><circle class="cls-40" cx="1770" cy="180" r="21"></circle><path class="cls-16" d="M1760.34,177.51a1.42,1.42,0,0,1,1.41-1.42h4a1.42,1.42,0,1,1,0,2.84h-4A1.41,1.41,0,0,1,1760.34,177.51Zm23.11,2.31a2.3,2.3,0,0,0-2.31-2.31h-10.92a2.32,2.32,0,0,0-2.3,2.31v.06h-8.72v-7.09a1.33,1.33,0,0,0-2.65,0v14.42a1.33,1.33,0,0,0,2.65,0v-3.54h21.6v3.53a1.33,1.33,0,1,0,2.65,0V181a1.18,1.18,0,0,0-.1-.5A2.32,2.32,0,0,0,1783.45,179.82Z"></path></g><g><circle class="cls-41" cx="490" cy="350" r="21"></circle><path class="cls-16" d="M503.33,345.25h-2.47l-1.54-2.92a4.59,4.59,0,0,0-4.05-2.5H484.73a4.59,4.59,0,0,0-4.05,2.5l-1.54,2.92h-2.47c-.61,0-1.11.34-1.11.76v1.25a1.06,1.06,0,0,0,1.11,1h.21a1.22,1.22,0,0,0-.16.6v7.23a2.39,2.39,0,0,0,1.73,2.34V359a1.18,1.18,0,0,0,1.15,1.2h2.32a1.18,1.18,0,0,0,1.15-1.2v-.46h13.86V359a1.18,1.18,0,0,0,1.15,1.2h2.32a1.18,1.18,0,0,0,1.15-1.2v-.53a2.39,2.39,0,0,0,1.73-2.34v-7.23a1.22,1.22,0,0,0-.16-.6h.21a1.06,1.06,0,0,0,1.11-1V346C504.44,345.59,503.94,345.25,503.33,345.25ZM501,353.69a1.73,1.73,0,1,1-1.73-1.81A1.77,1.77,0,0,1,501,353.69Zm-19.76-8.5,1.08-1.84a3.87,3.87,0,0,1,3.35-1.86h8.72a3.87,3.87,0,0,1,3.35,1.86l1.08,1.84L500,347.3H480Zm-.45,6.69a1.81,1.81,0,1,1-1.73,1.81A1.77,1.77,0,0,1,480.76,351.88Zm12.13,2.41h-5.78a.58.58,0,0,1-.57-.6.58.58,0,0,1,.57-.6h5.78a.58.58,0,0,1,.57.6A.58.58,0,0,1,492.89,354.29Z"></path></g><g><circle class="cls-8" cx="1400" cy="340" r="21"></circle><g><path class="cls-16" d="M1400.24,331.12a2.72,2.72,0,1,0-2.77-2.72A2.74,2.74,0,0,0,1400.24,331.12Z"></path><path class="cls-16" d="M1408.28,352l-2.75-6.58a1.84,1.84,0,0,0-.37-.55l-2.58-2.52v-2l2.73,2.44a1.51,1.51,0,0,0,2.11-.09,1.45,1.45,0,0,0-.1-2.07l-4.74-4.26v-2.06a2.35,2.35,0,0,0-2.34-2.35l-.15,0-.29,0-.18.05-.13,0-.08,0-.15.06-5.88,2.35a1.71,1.71,0,0,0-1.05,1.37l-.6,5.23a1.71,1.71,0,0,0,3.39.38l.49-4.25,2.28-.92v6.24a2.71,2.71,0,0,0,0,.41l-2,4.13-3.9,4.26a1.65,1.65,0,0,0,.13,2.36,1.73,1.73,0,0,0,2.41-.13l4.06-4.43a1.76,1.76,0,0,0,.27-.4l1.74-3.59,1.86,1.82,2.62,6.27a1.73,1.73,0,0,0,2.23.91A1.66,1.66,0,0,0,1408.28,352Z"></path></g></g><g><circle class="cls-39" cx="150" cy="170" r="21"></circle><path class="cls-16" d="M147.11,164a1.1,1.1,0,0,1,0,.18v1.15a2.48,2.48,0,0,1-1.39,2l-.88.42-.17,0,.23,14.77c0,.58-.71.84-1.28.84s-1.28-.26-1.28-.84l.23-14.77-.17,0-.88-.42a2.51,2.51,0,0,1-1.38-2v-1.15a1.09,1.09,0,0,1,0-.18.32.32,0,0,1,0-.14l.37-6.69c0-.32.17-.58.34-.58s.32.26.34.58l.33,5.69v.5a.66.66,0,0,0,.72.58h0a.66.66,0,0,0,.71-.58v-.49h0l.32-5.7c0-.32.17-.58.34-.58s.32.26.34.58l.34,5.7h0v.49a.66.66,0,0,0,.71.58h0a.66.66,0,0,0,.71-.58v-.55l.31-5.64c0-.32.17-.58.34-.58s.32.26.34.58l.4,6.69A.59.59,0,0,1,147.11,164Zm12.73-1.78c0-3.11-2-5.63-4.51-5.63s-4.51,2.52-4.51,5.63c0,2.63,1.45,4.84,3.4,5.46L154,182.48c0,.57.75.83,1.35.83s1.36-.26,1.36-.83l-.25-14.79C158.4,167.07,159.84,164.86,159.84,162.23Z"></path></g></g><g id="Location_Markers" data-name="Location Markers"><g><path class="cls-39" d="M1682,122h-4c0-22.88-4.74-31.55-14.42-39.54-7.69-6.35-11.59-15-11.59-25.71C1652,42,1664.56,30,1680,30c15.19,0,27.75,11.8,28,26.31v.43c0,10.72-3.9,19.37-11.59,25.72C1686.73,90.45,1682,99.12,1682,122Z"></path><path class="cls-18" d="M1680,39a19,19,0,1,0,19,19A19,19,0,0,0,1680,39Z"></path><path class="cls-15" d="M1684.71,63.74a1.15,1.15,0,1,0-1.18-1.15,1.16,1.16,0,0,0,1.18,1.15m-9,0a1.15,1.15,0,1,0-1.18-1.15,1.16,1.16,0,0,0,1.18,1.15M1680,50.65a.92.92,0,1,0-.94-.92.93.93,0,0,0,.94.92m-6.36,3.21a1.85,1.85,0,0,1,1.88-1.83h9a1.85,1.85,0,0,1,1.88,1.83V55.7a3.73,3.73,0,0,1-3.77,3.68h-5.18a3.73,3.73,0,0,1-3.77-3.68V53.86m.88,12.21a5,5,0,0,1-2.77-4.47v-9c0-4.44,3.69-5.64,8.25-5.64s8.25,1.2,8.25,5.64v9a5,5,0,0,1-2.7,4.44l.07.09,1.36,2.12c.27.43.07.78-.45.78h-13c-.52,0-.72-.35-.44-.78l1.36-2.12,0-.06m1.19,1.17a.82.82,0,0,1,.81-.81h7a.81.81,0,0,1,0,1.62h-7A.81.81,0,0,1,1675.71,67.24Z"></path></g><g><path class="cls-41" d="M1402,212h-4c0-22.88-4.74-31.55-14.42-39.54-7.69-6.35-11.59-15-11.59-25.71,0-14.75,12.56-26.75,28-26.75,15.19,0,27.75,11.8,28,26.31v.43c0,10.72-3.9,19.37-11.59,25.72C1406.73,180.45,1402,189.12,1402,212Z"></path><path class="cls-18" d="M1400,129a19,19,0,1,0,19,19A19,19,0,0,0,1400,129Z"></path><g><path class="cls-15" d="M1393.52,147.17h3.14a1.12,1.12,0,0,0,0-2.23h-3.14a1.12,1.12,0,0,0,0,2.23Z"></path><path class="cls-15" d="M1410.57,147.86a1.8,1.8,0,0,0-1.8-1.8h-8.61a1.79,1.79,0,0,0-1.8,1.8s0,0,0,0h-6.85v-5.53a1.06,1.06,0,0,0-1-1,1,1,0,0,0-1,1v11.24a1,1,0,1,0,2.09,0v-2.75h17v2.76a1,1,0,0,0,2.09,0v-4.87a1,1,0,0,0-.08-.39A2.09,2.09,0,0,0,1410.57,147.86Z"></path></g></g><g><path class="cls-40" d="M259,132h-4c0-22.88-4.74-31.55-14.42-39.54C232.9,86.11,229,77.46,229,66.75,229,52,241.56,40,257,40c15.19,0,27.75,11.8,28,26.31v.43c0,10.72-3.9,19.37-11.59,25.72C263.73,100.45,259,109.12,259,132Z"></path><path class="cls-18" d="M257,49a19,19,0,1,0,19,19A19,19,0,0,0,257,49Z"></path><path class="cls-15" d="M251.18,61.89a4.68,4.68,0,0,1,2.11.19c.93.25,2.62.79,4,1.25l-4.29,2-2.49-2.5s-.51-.4-.13-.58C251,62,251.18,61.89,251.18,61.89Zm15-1.51a2.36,2.36,0,0,1,1.58.51,1.89,1.89,0,0,1,.54.55c.31.47-.71,1.26-.92,1.45-.56.49-1.28.92-5.53,2.94l-.09,0c-.75,1.71-3.22,7.29-3.48,7.95a4.05,4.05,0,0,1-1.87,1.77.31.31,0,0,1-.45-.31l-.84-6.58-1,.34-.14,0-.81.26,0,0h-.05l-.41.12-.12,0-.64.18-.2,0-.4.1L251,70l-.23,0-.36.08-.2,0-.33.06-.13,0-.4.06h-.09l-.4,0c-.82-.16-1.47-1.35-1.47-1.35s-1.61-2.72-1.66-2.92a.42.42,0,0,1,.19-.53l.2-.07a.72.72,0,0,1,.22,0,1,1,0,0,1,.34,0l.15.05.19.09.15.08s.36.19.54.3a1.33,1.33,0,0,1,.2.13l.05,0,.27.19.07,0,.24.19.09.07.35.28.21.17a3.19,3.19,0,0,0,.42.26l.09,0h.21l.09,0,3.62-1.68L263.7,61A6.48,6.48,0,0,1,266.14,60.38Z"></path></g></g></g><g id="Phone"><g id="Device"><rect class="cls-42" x="587" y="80" width="190" height="415" rx="30"></rect><rect class="cls-18" x="596" y="122" width="172" height="318"></rect><rect class="cls-43" x="596" y="175" width="172" height="265"></rect><path class="cls-44" d="M682,478h0a13,13,0,1,1,13-13,13,13,0,0,1-13,13"></path></g><g id="Dubai"><rect class="cls-18" x="596" y="339" width="172" height="52"></rect><rect class="cls-45" x="655" y="365" width="60" height="14" rx="7"></rect><g><path class="cls-18" d="M665.71,374.76v-6.67H669a1.7,1.7,0,0,1,1.9,1.7,1.51,1.51,0,0,1-1.16,1.53A1.63,1.63,0,0,1,671,373a1.75,1.75,0,0,1-1.94,1.81Zm4-4.78a.84.84,0,0,0-.93-.86h-1.88v1.72h1.88A.83.83,0,0,0,669.69,370Zm.13,2.82a.92.92,0,0,0-1-.93h-1.93v1.86h1.93A.9.9,0,0,0,669.82,372.8Z"></path><path class="cls-18" d="M675.43,374.76v-.64a2.31,2.31,0,0,1-1.7.76,1.38,1.38,0,0,1-1.56-1.53v-3.42h1.05v3c0,.75.38,1,1,1a1.6,1.6,0,0,0,1.23-.63v-3.39h1.05v4.83Z"></path><path class="cls-18" d="M677.43,374.12l.48-.75a2.48,2.48,0,0,0,1.63.67c.63,0,1-.26,1-.64,0-.95-2.92-.27-2.92-2.13,0-.79.68-1.46,1.9-1.46a2.76,2.76,0,0,1,1.87.67l-.44.74a2,2,0,0,0-1.43-.58c-.55,0-.89.26-.89.6,0,.85,2.92.21,2.92,2.13,0,.86-.71,1.51-2,1.51A2.93,2.93,0,0,1,677.43,374.12Z"></path><path class="cls-18" d="M682.44,368.69a.65.65,0,1,1,.65.65A.65.65,0,0,1,682.44,368.69Zm.12,6.07v-4.83h1.05v4.83Z"></path><path class="cls-18" d="M688.24,374.76v-3c0-.76-.39-1-1-1a1.65,1.65,0,0,0-1.24.64v3.38h-1v-4.83h1v.65a2.3,2.3,0,0,1,1.71-.77,1.39,1.39,0,0,1,1.56,1.55v3.4Z"></path><path class="cls-18" d="M690.36,372.34a2.44,2.44,0,0,1,2.45-2.53,2.38,2.38,0,0,1,2.37,2.62v.26h-3.72A1.46,1.46,0,0,0,693,374a2,2,0,0,0,1.38-.54l.48.69a2.86,2.86,0,0,1-2,.71A2.42,2.42,0,0,1,690.36,372.34Zm2.44-1.67a1.32,1.32,0,0,0-1.35,1.27h2.72A1.3,1.3,0,0,0,692.8,370.67Z"></path><path class="cls-18" d="M695.81,374.12l.48-.75a2.48,2.48,0,0,0,1.63.67c.63,0,1-.26,1-.64,0-.95-2.92-.27-2.92-2.13,0-.79.68-1.46,1.9-1.46a2.76,2.76,0,0,1,1.87.67l-.44.74a2,2,0,0,0-1.43-.58c-.55,0-.89.26-.89.6,0,.85,2.92.21,2.92,2.13,0,.86-.71,1.51-2,1.51A2.93,2.93,0,0,1,695.81,374.12Z"></path><path class="cls-18" d="M700.53,374.12l.48-.75a2.48,2.48,0,0,0,1.63.67c.63,0,1-.26,1-.64,0-.95-2.92-.27-2.92-2.13,0-.79.68-1.46,1.9-1.46a2.76,2.76,0,0,1,1.87.67l-.44.74a2,2,0,0,0-1.43-.58c-.55,0-.89.26-.89.6,0,.85,2.92.21,2.92,2.13,0,.86-.71,1.51-2,1.51A2.93,2.93,0,0,1,700.53,374.12Z"></path></g><g><path d="M655.71,357.33v-6.67h2.48a3.34,3.34,0,1,1,0,6.67Zm4.77-3.34a2.16,2.16,0,0,0-2.28-2.3h-1.32v4.61h1.31A2.19,2.19,0,0,0,660.48,354Z"></path><path d="M666,357.33v-.64a2.31,2.31,0,0,1-1.7.76,1.38,1.38,0,0,1-1.56-1.53V352.5h1.05v3c0,.75.38,1,1,1a1.6,1.6,0,0,0,1.23-.63V352.5h1.05v4.83Z"></path><path d="M668.45,357.33v-6.67h1v2.51a1.91,1.91,0,0,1,1.55-.79c1.25,0,2.15,1,2.15,2.53s-.91,2.54-2.15,2.54a2,2,0,0,1-1.55-.78v.66Zm2.3-.81a1.63,1.63,0,0,0,0-3.21,1.59,1.59,0,0,0-1.25.65v1.92A1.58,1.58,0,0,0,670.75,356.52Z"></path><path d="M677.22,357.33v-.53a2,2,0,0,1-1.57.65,1.61,1.61,0,0,1-1.67-1.6,1.55,1.55,0,0,1,1.67-1.58,2,2,0,0,1,1.57.62v-.72c0-.56-.47-.9-1.13-.9a1.93,1.93,0,0,0-1.43.62l-.44-.73a2.83,2.83,0,0,1,2-.78c1.08,0,2,.45,2,1.74v3.21Zm0-1.1v-.74a1.44,1.44,0,0,0-1.15-.5.88.88,0,1,0,0,1.74A1.44,1.44,0,0,0,677.22,356.23Z"></path><path d="M679.51,351.26a.65.65,0,1,1,.65.65A.65.65,0,0,1,679.51,351.26Zm.12,6.07V352.5h1v4.83Z"></path><path d="M684.36,354a3.36,3.36,0,0,1,3.5-3.45,3,3,0,0,1,2.67,1.49l-1,.52a2,2,0,0,0-1.68-1,2.41,2.41,0,0,0,0,4.82,2,2,0,0,0,1.68-1l1,.5a3,3,0,0,1-2.68,1.51A3.36,3.36,0,0,1,684.36,354Z"></path><path d="M691.15,354.91a2.48,2.48,0,1,1,2.48,2.54A2.41,2.41,0,0,1,691.15,354.91Zm3.87,0a1.41,1.41,0,1,0-1.39,1.61A1.44,1.44,0,0,0,695,354.91Z"></path><path d="M700.45,357.33v-3c0-.76-.39-1-1-1a1.65,1.65,0,0,0-1.24.64v3.38h-1.05V352.5h1.05v.65a2.3,2.3,0,0,1,1.71-.77,1.39,1.39,0,0,1,1.56,1.55v3.4Z"></path><path d="M703.12,357.33v-3.92h-.8v-.91h.8v-.27a1.49,1.49,0,0,1,1.52-1.67,1.54,1.54,0,0,1,1.16.42l-.41.65a.78.78,0,0,0-.55-.21c-.42,0-.67.27-.67.81v.27h1v.91h-1v3.92Z"></path><path d="M705.66,354.91a2.44,2.44,0,0,1,2.45-2.53,2.38,2.38,0,0,1,2.37,2.62v.26h-3.72a1.46,1.46,0,0,0,1.53,1.33,2,2,0,0,0,1.38-.54l.48.69a2.86,2.86,0,0,1-2,.71A2.42,2.42,0,0,1,705.66,354.91Zm2.44-1.67a1.32,1.32,0,0,0-1.35,1.27h2.72A1.3,1.3,0,0,0,708.1,353.24Z"></path><path d="M711.52,357.33V352.5h1.05v.7a2.1,2.1,0,0,1,1.57-.82v1a1.45,1.45,0,0,0-.32,0,1.65,1.65,0,0,0-1.25.65v3.29Z"></path><path d="M714.7,354.91a2.44,2.44,0,0,1,2.45-2.53,2.38,2.38,0,0,1,2.37,2.62v.26H715.8a1.46,1.46,0,0,0,1.53,1.33,2,2,0,0,0,1.38-.54l.48.69a2.86,2.86,0,0,1-2,.71A2.42,2.42,0,0,1,714.7,354.91Zm2.44-1.67a1.32,1.32,0,0,0-1.35,1.27h2.72A1.3,1.3,0,0,0,717.14,353.24Z"></path><path d="M723.83,357.33v-3c0-.76-.39-1-1-1a1.65,1.65,0,0,0-1.24.64v3.38h-1.05V352.5h1.05v.65a2.3,2.3,0,0,1,1.71-.77,1.39,1.39,0,0,1,1.56,1.55v3.4Z"></path><path d="M726,354.91a2.42,2.42,0,0,1,2.49-2.53,2.15,2.15,0,0,1,1.85.86l-.69.63a1.28,1.28,0,0,0-1.11-.56,1.61,1.61,0,0,0,0,3.21,1.3,1.3,0,0,0,1.11-.58l.69.65a2.18,2.18,0,0,1-1.85.86A2.43,2.43,0,0,1,726,354.91Z"></path><path d="M730.93,354.91a2.44,2.44,0,0,1,2.45-2.53,2.38,2.38,0,0,1,2.37,2.62v.26H732a1.46,1.46,0,0,0,1.53,1.33,2,2,0,0,0,1.38-.54l.48.69a2.86,2.86,0,0,1-2,.71A2.42,2.42,0,0,1,730.93,354.91Zm2.44-1.67a1.32,1.32,0,0,0-1.35,1.27h2.72A1.3,1.3,0,0,0,733.37,353.24Z"></path></g><g><rect class="cls-46" x="596" y="339" width="52" height="52"></rect><path class="cls-8" d="M622.28,353.59H611.52c-5.73,6.86-11,18.34-9.76,37.41h19.29Z"></path><path class="cls-47" d="M644.43,374.71c-.24-.43-2.89-1.61-6.18.28a9.39,9.39,0,0,0-1.71-.74c-1.94-.58-5.6,0-5.84.46s1,.34,2.45.73c-1.74.67-2.62,2.53-2.45,3s2.83-2,4.94-2.09a2.46,2.46,0,0,1,1.25.3A23.79,23.79,0,0,0,634.57,391h1.2a22.78,22.78,0,0,1,2.48-14.39,4.77,4.77,0,0,1,1.81.19c1.87.59,3.13,2.05,3.31,1.61s-.56-2-2-2.77C643.05,375.05,644.64,375.11,644.43,374.71Z"></path><g><g id="Lines-2" data-name="Lines"><g class="cls-48"><rect class="cls-47" x="604.38" y="353.59" width="21.3" height="1.41"></rect><rect class="cls-47" x="604.38" y="355.96" width="21.3" height="1.41"></rect><rect class="cls-47" x="604.38" y="358.38" width="21.3" height="1.41"></rect><rect class="cls-47" x="604.38" y="360.81" width="21.3" height="1.41"></rect><rect class="cls-47" x="604.38" y="363.24" width="21.3" height="1.41"></rect><rect class="cls-47" x="604.38" y="365.6" width="21.3" height="1.41"></rect><rect class="cls-47" x="604.38" y="368.03" width="21.3" height="1.41"></rect><rect class="cls-47" x="604.38" y="370.46" width="21.3" height="1.41"></rect><rect class="cls-47" x="604.38" y="372.88" width="21.3" height="1.41"></rect><rect class="cls-47" x="604.38" y="375.25" width="21.3" height="1.41"></rect><rect class="cls-47" x="604.38" y="377.68" width="21.3" height="1.41"></rect><rect class="cls-47" x="604.38" y="380.1" width="21.3" height="1.41"></rect><rect class="cls-47" x="604.38" y="382.53" width="21.3" height="1.41"></rect><rect class="cls-47" x="604.38" y="384.9" width="21.3" height="1.41"></rect><rect class="cls-47" x="604.38" y="387.32" width="21.3" height="1.41"></rect><rect class="cls-47" x="603.67" y="387.32" width="21.3" height="1.41"></rect><rect class="cls-49" x="603.67" y="389.59" width="21.3" height="1.41"></rect></g></g><g id="Lines-3" data-name="Lines"><g class="cls-50"><rect class="cls-51" x="597.23" y="353.59" width="21.3" height="1.41"></rect><rect class="cls-51" x="597.23" y="355.96" width="21.3" height="1.41"></rect><rect class="cls-51" x="597.23" y="358.38" width="21.3" height="1.41"></rect><rect class="cls-51" x="597.23" y="360.81" width="21.3" height="1.41"></rect><rect class="cls-51" x="597.23" y="363.24" width="21.3" height="1.41"></rect><rect class="cls-51" x="597.23" y="365.6" width="21.3" height="1.41"></rect><rect class="cls-51" x="597.23" y="368.03" width="21.3" height="1.41"></rect><rect class="cls-51" x="597.23" y="370.46" width="21.3" height="1.41"></rect><rect class="cls-51" x="597.23" y="372.88" width="21.3" height="1.41"></rect><rect class="cls-51" x="597.23" y="375.25" width="21.3" height="1.41"></rect><rect class="cls-51" x="597.23" y="377.68" width="21.3" height="1.41"></rect><rect class="cls-51" x="597.23" y="380.1" width="21.3" height="1.41"></rect><rect class="cls-51" x="597.23" y="382.53" width="21.3" height="1.41"></rect><rect class="cls-51" x="597.23" y="384.9" width="21.3" height="1.41"></rect><rect class="cls-51" x="597.23" y="387.32" width="21.3" height="1.41"></rect><rect class="cls-51" x="597.23" y="389.59" width="21.3" height="1.41"></rect></g></g><polygon class="cls-52" points="623.51 355.35 625.28 355.54 625.28 356.57 623.46 356.41 623.51 355.35"></polygon><path class="cls-36" d="M622.92,354.22c0,.58.15,1.83,2.08,1.83s2.08-1.25,2.08-1.83Z"></path><ellipse class="cls-47" cx="625" cy="354.22" rx="2.08" ry="0.35"></ellipse></g><path class="cls-22" d="M605.38,391h16.51c.45-10.28,1.75-40,2.2-46.38C604.61,356.2,604.6,381.37,605.38,391Z"></path><path class="cls-49" d="M624.09,344.62c-.45,6.38-1.75,36.1-2.2,46.38h3.39V343a5.27,5.27,0,0,0-1.07.4s-24,9-20.92,47.6h2.09C604.6,381.37,604.61,356.2,624.09,344.62Z"></path><polygon class="cls-47" points="623.83 344.55 623.07 344.55 618.87 391 621.34 391 623.83 344.55"></polygon><path class="cls-51" d="M632.82,372.21a16.79,16.79,0,0,0,3.21,1.07c2.49.59,4.11,1.86,4.34,1.41s-1-2.44-3.5-3a19.6,19.6,0,0,0-3.31-.53v0a17.68,17.68,0,0,0,3.29-.79c2.4-.79,4.88-.67,4.58-1.11s-3.28-1.25-5.68-.46a12.54,12.54,0,0,0-3.44,1.6,7.66,7.66,0,0,0-3.16-1.6c-2.43-.68-5.37,0-5.67.46s2.17.32,4.57,1.11c1.17.34,2.17.66,3,.88a20.66,20.66,0,0,0-3,.5c-2.49.6-3.73,2.59-3.5,3s1.84-.82,4.33-1.41c.74-.18,1.42-.38,2-.58a19.84,19.84,0,0,0-2.1,3.72A21.73,21.73,0,0,0,628,391h1.25C626.33,380.85,631.11,374.17,632.82,372.21Z"></path></g></g><g id="London"><rect class="cls-18" x="596" y="285" width="172" height="52"></rect><rect class="cls-45" x="655" y="312" width="60" height="14" rx="7"></rect><g><path class="cls-18" d="M665.71,321.76v-6.67H669a1.7,1.7,0,0,1,1.9,1.7,1.51,1.51,0,0,1-1.16,1.53A1.63,1.63,0,0,1,671,320a1.75,1.75,0,0,1-1.94,1.81Zm4-4.78a.84.84,0,0,0-.93-.86h-1.88v1.72h1.88A.83.83,0,0,0,669.69,317Zm.13,2.82a.92.92,0,0,0-1-.93h-1.93v1.86h1.93A.9.9,0,0,0,669.82,319.8Z"></path><path class="cls-18" d="M675.43,321.76v-.64a2.31,2.31,0,0,1-1.7.76,1.38,1.38,0,0,1-1.56-1.53v-3.42h1.05v3c0,.75.38,1,1,1a1.6,1.6,0,0,0,1.23-.63v-3.39h1.05v4.83Z"></path><path class="cls-18" d="M677.43,321.12l.48-.75a2.48,2.48,0,0,0,1.63.67c.63,0,1-.26,1-.64,0-.95-2.92-.27-2.92-2.13,0-.79.68-1.46,1.9-1.46a2.76,2.76,0,0,1,1.87.67l-.44.74a2,2,0,0,0-1.43-.58c-.55,0-.89.26-.89.6,0,.85,2.92.21,2.92,2.13,0,.86-.71,1.51-2,1.51A2.93,2.93,0,0,1,677.43,321.12Z"></path><path class="cls-18" d="M682.44,315.69a.65.65,0,1,1,.65.65A.65.65,0,0,1,682.44,315.69Zm.12,6.07v-4.83h1.05v4.83Z"></path><path class="cls-18" d="M688.24,321.76v-3c0-.76-.39-1-1-1a1.65,1.65,0,0,0-1.24.64v3.38h-1v-4.83h1v.65a2.3,2.3,0,0,1,1.71-.77,1.39,1.39,0,0,1,1.56,1.55v3.4Z"></path><path class="cls-18" d="M690.36,319.34a2.44,2.44,0,0,1,2.45-2.53,2.38,2.38,0,0,1,2.37,2.62v.26h-3.72A1.46,1.46,0,0,0,693,321a2,2,0,0,0,1.38-.54l.48.69a2.86,2.86,0,0,1-2,.71A2.42,2.42,0,0,1,690.36,319.34Zm2.44-1.67a1.32,1.32,0,0,0-1.35,1.27h2.72A1.3,1.3,0,0,0,692.8,317.67Z"></path><path class="cls-18" d="M695.81,321.12l.48-.75a2.48,2.48,0,0,0,1.63.67c.63,0,1-.26,1-.64,0-.95-2.92-.27-2.92-2.13,0-.79.68-1.46,1.9-1.46a2.76,2.76,0,0,1,1.87.67l-.44.74a2,2,0,0,0-1.43-.58c-.55,0-.89.26-.89.6,0,.85,2.92.21,2.92,2.13,0,.86-.71,1.51-2,1.51A2.93,2.93,0,0,1,695.81,321.12Z"></path><path class="cls-18" d="M700.53,321.12l.48-.75a2.48,2.48,0,0,0,1.63.67c.63,0,1-.26,1-.64,0-.95-2.92-.27-2.92-2.13,0-.79.68-1.46,1.9-1.46a2.76,2.76,0,0,1,1.87.67l-.44.74a2,2,0,0,0-1.43-.58c-.55,0-.89.26-.89.6,0,.85,2.92.21,2.92,2.13,0,.86-.71,1.51-2,1.51A2.93,2.93,0,0,1,700.53,321.12Z"></path></g><g><path d="M655.63,304.33v-6.67h1.17v5.64h2.94v1Z"></path><path d="M660.3,301.91a2.48,2.48,0,1,1,2.48,2.54A2.41,2.41,0,0,1,660.3,301.91Zm3.87,0a1.41,1.41,0,1,0-1.39,1.61A1.44,1.44,0,0,0,664.17,301.91Z"></path><path d="M669.6,304.33v-3c0-.76-.39-1-1-1a1.65,1.65,0,0,0-1.24.64v3.38h-1V299.5h1v.65a2.3,2.3,0,0,1,1.71-.77,1.39,1.39,0,0,1,1.56,1.55v3.4Z"></path><path d="M675.41,304.33v-.66a1.94,1.94,0,0,1-1.55.78c-1.23,0-2.14-.94-2.14-2.54s.9-2.53,2.14-2.53a1.88,1.88,0,0,1,1.55.79v-2.51h1.05v6.67Zm0-1.46V301a1.57,1.57,0,0,0-1.24-.65,1.63,1.63,0,0,0,0,3.21A1.57,1.57,0,0,0,675.41,302.87Z"></path><path d="M677.53,301.91a2.48,2.48,0,1,1,2.48,2.54A2.41,2.41,0,0,1,677.53,301.91Zm3.87,0a1.41,1.41,0,1,0-1.39,1.61A1.44,1.44,0,0,0,681.4,301.91Z"></path><path d="M686.83,304.33v-3c0-.76-.39-1-1-1a1.65,1.65,0,0,0-1.24.64v3.38h-1.05V299.5h1.05v.65a2.3,2.3,0,0,1,1.71-.77,1.39,1.39,0,0,1,1.56,1.55v3.4Z"></path><path d="M691.56,301a3.36,3.36,0,0,1,3.5-3.45,3,3,0,0,1,2.67,1.49l-1,.52a2,2,0,0,0-1.68-1,2.41,2.41,0,0,0,0,4.82,2,2,0,0,0,1.68-1l1,.5a3,3,0,0,1-2.68,1.51A3.36,3.36,0,0,1,691.56,301Z"></path><path d="M698.35,301.91a2.48,2.48,0,1,1,2.48,2.54A2.41,2.41,0,0,1,698.35,301.91Zm3.87,0a1.41,1.41,0,1,0-1.39,1.61A1.44,1.44,0,0,0,702.22,301.91Z"></path><path d="M707.65,304.33v-3c0-.76-.39-1-1-1a1.65,1.65,0,0,0-1.24.64v3.38h-1V299.5h1v.65a2.3,2.3,0,0,1,1.71-.77,1.39,1.39,0,0,1,1.56,1.55v3.4Z"></path><path d="M710.32,304.33v-3.92h-.8v-.91h.8v-.27a1.49,1.49,0,0,1,1.52-1.67A1.54,1.54,0,0,1,713,298l-.41.65a.78.78,0,0,0-.55-.21c-.42,0-.67.27-.67.81v.27h1v.91h-1v3.92Z"></path><path d="M712.86,301.91a2.44,2.44,0,0,1,2.45-2.53,2.38,2.38,0,0,1,2.37,2.62v.26H714a1.46,1.46,0,0,0,1.53,1.33,2,2,0,0,0,1.38-.54l.48.69a2.86,2.86,0,0,1-2,.71A2.42,2.42,0,0,1,712.86,301.91Zm2.44-1.67a1.32,1.32,0,0,0-1.35,1.27h2.72A1.3,1.3,0,0,0,715.3,300.24Z"></path><path d="M718.72,304.33V299.5h1v.7a2.1,2.1,0,0,1,1.57-.82v1a1.45,1.45,0,0,0-.32,0,1.65,1.65,0,0,0-1.25.65v3.29Z"></path><path d="M721.9,301.91a2.44,2.44,0,0,1,2.45-2.53,2.38,2.38,0,0,1,2.37,2.62v.26H723a1.46,1.46,0,0,0,1.53,1.33,2,2,0,0,0,1.38-.54l.48.69a2.86,2.86,0,0,1-2,.71A2.42,2.42,0,0,1,721.9,301.91Zm2.44-1.67a1.32,1.32,0,0,0-1.35,1.27h2.72A1.3,1.3,0,0,0,724.34,300.24Z"></path><path d="M731,304.33v-3c0-.76-.39-1-1-1a1.65,1.65,0,0,0-1.24.64v3.38h-1V299.5h1v.65a2.3,2.3,0,0,1,1.71-.77,1.39,1.39,0,0,1,1.56,1.55v3.4Z"></path><path d="M733.15,301.91a2.42,2.42,0,0,1,2.49-2.53,2.15,2.15,0,0,1,1.85.86l-.69.63a1.28,1.28,0,0,0-1.11-.56,1.61,1.61,0,0,0,0,3.21,1.3,1.3,0,0,0,1.11-.58l.69.65a2.18,2.18,0,0,1-1.85.86A2.43,2.43,0,0,1,733.15,301.91Z"></path><path d="M738.13,301.91a2.44,2.44,0,0,1,2.45-2.53A2.38,2.38,0,0,1,743,302v.26h-3.72a1.46,1.46,0,0,0,1.53,1.33,2,2,0,0,0,1.38-.54l.48.69a2.86,2.86,0,0,1-2,.71A2.42,2.42,0,0,1,738.13,301.91Zm2.44-1.67a1.32,1.32,0,0,0-1.35,1.27h2.72A1.3,1.3,0,0,0,740.57,300.24Z"></path></g><g><rect class="cls-11" x="596" y="285" width="52" height="52"></rect><path class="cls-53" d="M638,295.14c0-3.94-8.49-7.14-16-7.14s-16,3.2-16,7.14L622,324Z"></path><path class="cls-54" d="M622,304.26c8.28,0,15-3.19,15-7.13S628.39,290,622,290s-15,3.19-15,7.13S613.72,304.26,622,304.26Z"></path><rect class="cls-55" x="607" y="297" width="30" height="40"></rect><rect class="cls-56" x="609" y="305" width="26" height="32"></rect><rect class="cls-57" x="611" y="308" width="4" height="7"></rect><rect class="cls-57" x="611" y="326.11" width="4" height="7"></rect><rect class="cls-57" x="611" y="316.56" width="4" height="7"></rect><rect class="cls-57" x="617" y="308" width="10" height="7"></rect><rect class="cls-57" x="617" y="326" width="10" height="7"></rect><rect class="cls-57" x="617" y="317" width="10" height="7"></rect><rect class="cls-57" x="629" y="308" width="4" height="7"></rect><rect class="cls-57" x="629" y="326" width="4" height="7"></rect><rect class="cls-57" x="629" y="317" width="4" height="7"></rect><rect class="cls-58" x="612" y="298" width="20" height="4"></rect><polygon class="cls-59" points="620.38 296 623.62 296 625 293.09 623.15 294.18 622 292 621.06 294.18 619 293.09 620.38 296"></polygon></g></g><g id="Hawaii"><rect class="cls-18" x="596" y="231" width="172" height="52"></rect><g><path d="M660.35,249.33v-2.92h-3.47v2.92h-1.17v-6.67h1.17v2.72h3.47v-2.72h1.17v6.67Z"></path><path d="M665.87,249.33v-.53a2,2,0,0,1-1.57.65,1.61,1.61,0,0,1-1.67-1.6,1.55,1.55,0,0,1,1.67-1.58,2,2,0,0,1,1.57.62v-.72c0-.56-.47-.9-1.13-.9a1.93,1.93,0,0,0-1.43.62l-.44-.73a2.83,2.83,0,0,1,2-.78c1.08,0,2,.45,2,1.74v3.21Zm0-1.1v-.74a1.44,1.44,0,0,0-1.15-.5.88.88,0,1,0,0,1.74A1.44,1.44,0,0,0,665.87,248.23Z"></path><path d="M672.5,249.33l-1.13-3.54-1.12,3.54h-1.1l-1.5-4.83h1.09l1,3.51,1.15-3.51h.93L673,248l1-3.51h1.1l-1.5,4.83Z"></path><path d="M678.79,249.33v-.53a2,2,0,0,1-1.57.65,1.61,1.61,0,0,1-1.67-1.6,1.55,1.55,0,0,1,1.67-1.58,2,2,0,0,1,1.57.62v-.72c0-.56-.47-.9-1.13-.9a1.93,1.93,0,0,0-1.43.62l-.44-.73a2.83,2.83,0,0,1,2-.78c1.08,0,2,.45,2,1.74v3.21Zm0-1.1v-.74a1.44,1.44,0,0,0-1.15-.5.88.88,0,1,0,0,1.74A1.44,1.44,0,0,0,678.79,248.23Z"></path><path d="M681.08,243.26a.65.65,0,1,1,.65.65A.65.65,0,0,1,681.08,243.26Zm.12,6.07V244.5h1v4.83Z"></path><path d="M683.49,243.26a.65.65,0,1,1,.65.65A.65.65,0,0,1,683.49,243.26Zm.12,6.07V244.5h1v4.83Z"></path><path d="M693.73,249.33l-1.29-4.93-1.3,4.93h-1.25l-1.9-6.67h1.3l1.3,5.13,1.38-5.13h.93l1.38,5.13,1.3-5.13h1.3l-1.9,6.67Z"></path><path d="M696.94,246.91a2.44,2.44,0,0,1,2.45-2.53,2.38,2.38,0,0,1,2.37,2.62v.26H698a1.46,1.46,0,0,0,1.53,1.33,2,2,0,0,0,1.38-.54l.48.69a2.86,2.86,0,0,1-2,.71A2.42,2.42,0,0,1,696.94,246.91Zm2.44-1.67a1.32,1.32,0,0,0-1.35,1.27h2.72A1.3,1.3,0,0,0,699.38,245.24Z"></path><path d="M706.2,249.33v-.66a1.94,1.94,0,0,1-1.55.78c-1.23,0-2.14-.94-2.14-2.54s.9-2.53,2.14-2.53a1.88,1.88,0,0,1,1.55.79v-2.51h1v6.67Zm0-1.46V246a1.57,1.57,0,0,0-1.24-.65,1.63,1.63,0,0,0,0,3.21A1.57,1.57,0,0,0,706.2,247.87Z"></path><path d="M712,249.33v-.66a1.94,1.94,0,0,1-1.55.78c-1.23,0-2.14-.94-2.14-2.54s.9-2.53,2.14-2.53a1.88,1.88,0,0,1,1.55.79v-2.51h1v6.67Zm0-1.46V246a1.57,1.57,0,0,0-1.24-.65,1.63,1.63,0,0,0,0,3.21A1.57,1.57,0,0,0,712,247.87Z"></path><path d="M714.3,243.26a.65.65,0,1,1,.65.65A.65.65,0,0,1,714.3,243.26Zm.12,6.07V244.5h1.05v4.83Z"></path><path d="M720.1,249.33v-3c0-.76-.39-1-1-1a1.65,1.65,0,0,0-1.24.64v3.38h-1V244.5h1v.65a2.3,2.3,0,0,1,1.71-.77,1.39,1.39,0,0,1,1.56,1.55v3.4Z"></path><path d="M722.45,250.57l.49-.76a1.91,1.91,0,0,0,1.54.62,1.28,1.28,0,0,0,1.43-1.35v-.55a1.94,1.94,0,0,1-1.55.81c-1.23,0-2.14-.89-2.14-2.48s.89-2.48,2.14-2.48a1.9,1.9,0,0,1,1.55.79v-.67H727v4.58c0,1.74-1.3,2.21-2.48,2.21A2.76,2.76,0,0,1,722.45,250.57Zm3.46-2.81V246a1.6,1.6,0,0,0-1.24-.64,1.56,1.56,0,0,0,0,3.09A1.6,1.6,0,0,0,725.91,247.76Z"></path></g><rect class="cls-40" x="655" y="257" width="60" height="14" rx="7"></rect><g><path class="cls-18" d="M665.71,266.76v-6.67h2.94a2.09,2.09,0,1,1,0,4.17h-1.77v2.5Zm3.91-4.58a1,1,0,0,0-1.13-1.06h-1.61v2.11h1.61A1,1,0,0,0,669.62,262.18Z"></path><path class="cls-18" d="M671.33,264.34a2.44,2.44,0,0,1,2.45-2.53,2.38,2.38,0,0,1,2.37,2.62v.26h-3.72A1.46,1.46,0,0,0,674,266a2,2,0,0,0,1.38-.54l.48.69a2.86,2.86,0,0,1-2,.71A2.42,2.42,0,0,1,671.33,264.34Zm2.44-1.67a1.32,1.32,0,0,0-1.35,1.27h2.72A1.3,1.3,0,0,0,673.77,262.67Z"></path><path class="cls-18" d="M677.19,266.76v-4.83h1v.7a2.1,2.1,0,0,1,1.57-.82v1a1.45,1.45,0,0,0-.32,0,1.65,1.65,0,0,0-1.25.65v3.29Z"></path><path class="cls-18" d="M680.25,266.12l.48-.75a2.48,2.48,0,0,0,1.63.67c.63,0,1-.26,1-.64,0-.95-2.92-.27-2.92-2.13,0-.79.68-1.46,1.9-1.46a2.76,2.76,0,0,1,1.87.67l-.44.74a2,2,0,0,0-1.43-.58c-.55,0-.89.26-.89.6,0,.85,2.92.21,2.92,2.13,0,.86-.71,1.51-2,1.51A2.93,2.93,0,0,1,680.25,266.12Z"></path><path class="cls-18" d="M685.09,264.34a2.48,2.48,0,1,1,2.48,2.54A2.41,2.41,0,0,1,685.09,264.34Zm3.87,0a1.41,1.41,0,1,0-1.39,1.61A1.44,1.44,0,0,0,689,264.34Z"></path><path class="cls-18" d="M694.39,266.76v-3c0-.76-.39-1-1-1a1.65,1.65,0,0,0-1.24.64v3.38h-1v-4.83h1v.65a2.3,2.3,0,0,1,1.71-.77,1.39,1.39,0,0,1,1.56,1.55v3.4Z"></path><path class="cls-18" d="M699.76,266.76v-.53a2,2,0,0,1-1.57.65,1.61,1.61,0,0,1-1.67-1.6,1.55,1.55,0,0,1,1.67-1.58,2,2,0,0,1,1.57.62v-.72c0-.56-.47-.9-1.13-.9a1.93,1.93,0,0,0-1.43.62l-.44-.73a2.83,2.83,0,0,1,2-.78c1.08,0,2,.45,2,1.74v3.21Zm0-1.1v-.74a1.44,1.44,0,0,0-1.15-.5.88.88,0,1,0,0,1.74A1.44,1.44,0,0,0,699.76,265.66Z"></path><path class="cls-18" d="M702.17,266.76v-6.67h1.05v6.67Z"></path></g><g><rect class="cls-60" x="596" y="231" width="52" height="52"></rect><path id="SVGID-3" data-name="SVGID" class="cls-16" d="M627.46,270.19a3.36,3.36,0,0,1,1.06.17v-.17a3.66,3.66,0,0,1,6.9-1.78,3.12,3.12,0,0,1,.54,0,3.62,3.62,0,0,1,3.39,2.37,2.77,2.77,0,0,1,1.65-.55,2.84,2.84,0,0,1,2.81,2.87H624a3.59,3.59,0,0,1,3.49-2.87"></path><g><path id="SVGID-4" data-name="SVGID" class="cls-61" d="M636.45,244.46s3-1.34,4.38,2.25c0,0,1.16-3.17,4.48-1.44,0,0-2.65-2.34-4.32-.22a3.21,3.21,0,0,0-4.54-.59"></path><path id="SVGID-5" data-name="SVGID" class="cls-61" d="M630.1,247a2.61,2.61,0,0,1,3.87.71,2.41,2.41,0,0,1,3.16-2.09s-2.54-1.17-3.38.81a2.64,2.64,0,0,0-3.65.57"></path></g><path class="cls-12" d="M625.47,258.21a1.12,1.12,0,1,0-2-1.09c-.3.53-5.52,10.14-6.65,25.88h2.28C620.32,267.72,625.4,258.33,625.47,258.21Z"></path><path class="cls-12" d="M618.86,247.12a1.12,1.12,0,0,0-1.83-1.3c-.12.18-9.83,14.28-7.8,37.18h2.25C609.44,260.86,618.74,247.29,618.86,247.12Z"></path><path class="cls-62" d="M637.52,254.14c-.48-1-5.14-3-8.89-1.12a20.72,20.72,0,0,0-4.88,3.28,20.72,20.72,0,0,0-4.88-3.28c-3.76-1.89-8.41.07-8.89,1.12s3.4.76,7.16,2.65c.49.25,1,.47,1.44.68-.73.19-1.51.43-2.3.72-3.95,1.45-5.92,6.3-5.55,7.39s2.93-2,6.87-3.43a17,17,0,0,0,5.92-3.33h.23a3.8,3.8,0,0,0,.58,0,17.21,17.21,0,0,0,5.94,3.34c3.94,1.44,6.51,4.52,6.87,3.43s-1.6-5.94-5.55-7.39a25.64,25.64,0,0,0-2.53-.78c.42-.19.86-.4,1.29-.62C634.11,254.9,638,255.18,637.52,254.14Z"></path><path class="cls-62" d="M626.27,246.62c-1.1-.3-2.17-.54-3.17-.71.57-.31,1.16-.65,1.76-1,4.46-2.76,9.3-2.84,8.6-4.08s-6.7-3.17-11.16-.41a24.51,24.51,0,0,0-5.95,4.9,24.3,24.3,0,0,0-6.71-3.79c-4.87-2-10.43,1-10.91,2.34s4.3.57,9.17,2.52c.7.28,1.39.52,2.06.74-.89.33-1.82.72-2.78,1.17-4.74,2.27-6.64,8.62-6.07,10s3.41-2.84,8.15-5.1c3.35-1.59,6-3.51,7.08-5l.26,0,.64,0c1.31,1.25,4.26,2.68,7.83,3.67,5.06,1.4,8.58,5,8.91,3.6S631.33,248,626.27,246.62Z"></path></g></g><g id="New_York" data-name="New York"><rect class="cls-18" x="596" y="177" width="172" height="52"></rect><rect class="cls-45" x="655" y="203" width="60" height="14" rx="7"></rect><g><path class="cls-18" d="M665.71,212.76v-6.67H669a1.7,1.7,0,0,1,1.9,1.7,1.51,1.51,0,0,1-1.16,1.53A1.63,1.63,0,0,1,671,211a1.75,1.75,0,0,1-1.94,1.81Zm4-4.78a.84.84,0,0,0-.93-.86h-1.88v1.72h1.88A.83.83,0,0,0,669.69,208Zm.13,2.82a.92.92,0,0,0-1-.93h-1.93v1.86h1.93A.9.9,0,0,0,669.82,210.8Z"></path><path class="cls-18" d="M675.43,212.76v-.64a2.31,2.31,0,0,1-1.7.76,1.38,1.38,0,0,1-1.56-1.53v-3.42h1.05v3c0,.75.38,1,1,1a1.6,1.6,0,0,0,1.23-.63v-3.39h1.05v4.83Z"></path><path class="cls-18" d="M677.43,212.12l.48-.75a2.48,2.48,0,0,0,1.63.67c.63,0,1-.26,1-.64,0-1-2.92-.27-2.92-2.13,0-.79.68-1.46,1.9-1.46a2.76,2.76,0,0,1,1.87.67l-.44.74a2,2,0,0,0-1.43-.58c-.55,0-.89.26-.89.6,0,.85,2.92.21,2.92,2.13,0,.86-.71,1.51-2,1.51A2.93,2.93,0,0,1,677.43,212.12Z"></path><path class="cls-18" d="M682.44,206.69a.65.65,0,1,1,.65.65A.65.65,0,0,1,682.44,206.69Zm.12,6.07v-4.83h1.05v4.83Z"></path><path class="cls-18" d="M688.24,212.76v-3c0-.76-.39-1-1-1a1.65,1.65,0,0,0-1.24.64v3.38h-1v-4.83h1v.65a2.3,2.3,0,0,1,1.71-.77,1.39,1.39,0,0,1,1.56,1.55v3.4Z"></path><path class="cls-18" d="M690.36,210.34a2.44,2.44,0,0,1,2.45-2.53,2.38,2.38,0,0,1,2.37,2.62v.26h-3.72A1.46,1.46,0,0,0,693,212a2,2,0,0,0,1.38-.54l.48.69a2.86,2.86,0,0,1-2,.71A2.42,2.42,0,0,1,690.36,210.34Zm2.44-1.67a1.32,1.32,0,0,0-1.35,1.27h2.72A1.3,1.3,0,0,0,692.8,208.67Z"></path><path class="cls-18" d="M695.81,212.12l.48-.75a2.48,2.48,0,0,0,1.63.67c.63,0,1-.26,1-.64,0-1-2.92-.27-2.92-2.13,0-.79.68-1.46,1.9-1.46a2.76,2.76,0,0,1,1.87.67l-.44.74a2,2,0,0,0-1.43-.58c-.55,0-.89.26-.89.6,0,.85,2.92.21,2.92,2.13,0,.86-.71,1.51-2,1.51A2.93,2.93,0,0,1,695.81,212.12Z"></path><path class="cls-18" d="M700.53,212.12l.48-.75a2.48,2.48,0,0,0,1.63.67c.63,0,1-.26,1-.64,0-1-2.92-.27-2.92-2.13,0-.79.68-1.46,1.9-1.46a2.76,2.76,0,0,1,1.87.67l-.44.74a2,2,0,0,0-1.43-.58c-.55,0-.89.26-.89.6,0,.85,2.92.21,2.92,2.13,0,.86-.71,1.51-2,1.51A2.93,2.93,0,0,1,700.53,212.12Z"></path></g><g><path d="M660.36,195.67l-3.48-4.77v4.77h-1.17V189h1.2l3.41,4.62V189h1.17v6.67Z"></path><path d="M662.59,193.25a2.44,2.44,0,0,1,2.45-2.53,2.38,2.38,0,0,1,2.37,2.62v.26h-3.72a1.46,1.46,0,0,0,1.53,1.33,2,2,0,0,0,1.38-.54l.48.69a2.86,2.86,0,0,1-2,.71A2.42,2.42,0,0,1,662.59,193.25Zm2.44-1.67a1.32,1.32,0,0,0-1.35,1.27h2.72A1.3,1.3,0,0,0,665,191.58Z"></path><path d="M672.67,195.67l-1.13-3.54-1.12,3.54h-1.1l-1.5-4.83h1.09l1,3.51,1.15-3.51H672l1.14,3.51,1-3.51h1.1l-1.5,4.83Z"></path><path d="M680.51,195.67V192.9l-2.59-3.9h1.34l1.83,2.85,1.83-2.85h1.34l-2.58,3.9v2.77Z"></path><path d="M683.41,193.25a2.48,2.48,0,1,1,2.48,2.54A2.41,2.41,0,0,1,683.41,193.25Zm3.87,0a1.41,1.41,0,1,0-1.39,1.61A1.44,1.44,0,0,0,687.28,193.25Z"></path><path d="M689.44,195.67v-4.83h1v.7a2.1,2.1,0,0,1,1.57-.82v1a1.45,1.45,0,0,0-.32,0,1.65,1.65,0,0,0-1.25.65v3.29Z"></path><path d="M696.11,195.67l-1.47-2-.68.7v1.3h-1.05V189H694v4.17l2.13-2.33h1.3l-2,2.19,2,2.64Z"></path></g><g><rect class="cls-63" x="596" y="177" width="52" height="52"></rect><polygon class="cls-64" points="619.84 194.83 622 194.83 624.16 194.83 622.23 177 621.77 177 619.84 194.83"></polygon><path class="cls-65" d="M636.06,227.05c.07.46-.09.44,0,1.11,0,0-.13.31-.37.84h4.68a11,11,0,0,0-3.25-4.17,4.94,4.94,0,0,0-2-.89C635.59,224.31,635.77,224.83,636.06,227.05Z"></path><path class="cls-65" d="M615.31,223,612.76,229H618a6.24,6.24,0,0,1-2.44-4.94V222.4a17.44,17.44,0,0,1,6.48-.91s3.33.28,6.48.72v1.85A6.27,6.27,0,0,1,626,229h4.42l3.42-5.28h.3a10.23,10.23,0,0,0-4.88-2.42,41.78,41.78,0,0,0-8-.7c-5.23,0-4.39.23-9.29,2s-7.65,2.09-8.14,3.33c-.42,1.07-.8,2.1-1.15,3.1h6.4Z"></path><path class="cls-49" d="M628.48,224.06v-1.85c-3.15-.44-6.48-.72-6.48-.72a17.44,17.44,0,0,0-6.48.91v1.66A6.24,6.24,0,0,0,618,229H626A6.27,6.27,0,0,0,628.48,224.06Z"></path><path class="cls-64" d="M634.23,223.94a2.47,2.47,0,0,1,.9,0,1.63,1.63,0,0,0-.32-.22h-.61Z"></path><path class="cls-64" d="M630.46,229h5.23c.24-.53.37-.84.37-.84-.09-.67.07-.65,0-1.11-.29-2.22-.47-2.74-.93-3.11a2.47,2.47,0,0,0-.9,0l0-.21h-.32Z"></path><polygon class="cls-64" points="615.52 222.4 609.08 229 612.76 229 615.52 222.4"></polygon><polygon class="cls-27" points="596.08 201.5 596.08 201.5 613.36 203.72 613.36 201.5 613.36 199.28 596.08 201.5"></polygon><polygon class="cls-27" points="602.56 221.49 602.56 221.49 602.56 221.49 617.68 208.71 616.34 207.33 614.99 205.94 602.56 221.49"></polygon><path class="cls-30" d="M622,210.39a4.49,4.49,0,0,0-4.32,4.65v8.46a4.49,4.49,0,0,0,4.32,4.66Z"></path><path class="cls-27" d="M622,228.16a4.49,4.49,0,0,0,4.32-4.65V215a4.49,4.49,0,0,0-4.32-4.65Z"></path><polygon class="cls-27" points="641.44 221.49 641.44 221.49 641.44 221.49 626.32 208.71 627.66 207.33 629.01 205.94 641.44 221.49"></polygon><path class="cls-30" d="M630.64,210.52a8.64,8.64,0,1,1-17.28,0v-6.94a8.64,8.64,0,1,1,17.28,0Z"></path><polygon class="cls-27" points="600.4 181.51 600.4 181.5 600.4 181.51 600.4 181.5 600.4 181.51 612.83 197.06 614.18 195.68 615.52 194.29 600.4 181.51"></polygon><path class="cls-16" d="M613.36,210.39a61.17,61.17,0,0,1,0-6.86s4.09-6.81,8.64-3.19A13.75,13.75,0,0,1,613.36,210.39Z"></path><path class="cls-30" d="M622,192.61c-7.21,0-10.8,4.17-10.8,9.25,0,7.23,2.13,8.53,2.13,8.53,0-6.36,3.26-9.39,8.67-9.39Z"></path><path class="cls-32" d="M613.3,210.83c0-6.58,3.36-9.71,8.92-9.71v-5.84c-6.61,0-10.63,3.55-10.81,10.95C612,210,613.3,210.83,613.3,210.83Z"></path><polygon class="cls-27" points="643.6 181.51 643.6 181.5 643.6 181.51 643.6 181.5 643.6 181.51 631.17 197.06 629.82 195.68 628.48 194.29 643.6 181.51"></polygon><polygon class="cls-27" points="647.92 201.5 647.92 201.5 630.64 203.72 630.64 201.5 630.64 199.28 647.92 201.5"></polygon><path class="cls-30" d="M622,192.61c7.21,0,10.8,4.17,10.8,9.25,0,7.23-2.13,8.53-2.13,8.53,0-6.36-3.26-9.39-8.67-9.39Z"></path><path class="cls-27" d="M630.64,210.35a8.78,8.78,0,0,1-8.64,8.92V201.05c4.77,0,8.64,3.3,8.64,8.22Z"></path><path class="cls-66" d="M630.64,210.39a61.17,61.17,0,0,0,0-6.86s-4.09-6.81-8.64-3.19A13.75,13.75,0,0,0,630.64,210.39Z"></path><path class="cls-15" d="M632.59,206.23c-.6,3.79-1.89,4.6-1.89,4.6,0-6.58-3.36-9.71-8.92-9.71v-5.84c6.61,0,10.63,3.55,10.81,10.95"></path></g></g><g><path class="cls-67" d="M663.14,153.85V141.44h-4.42v-2.27h11.41v2.27h-4.42v12.41Z"></path><path class="cls-67" d="M672.24,153.85V143.22h2.3v1.54A4.59,4.59,0,0,1,678,143v2.29a2.85,2.85,0,0,0-.7-.07,3.6,3.6,0,0,0-2.74,1.43v7.24Z"></path><path class="cls-67" d="M679.58,140.49a1.43,1.43,0,1,1,1.42,1.43A1.42,1.42,0,0,1,679.58,140.49Zm.26,13.36V143.22h2.3v10.63Z"></path><path class="cls-67" d="M687.42,152.38v5.52h-2.3V143.22h2.3v1.45a4.24,4.24,0,0,1,3.4-1.71c2.74,0,4.69,2.07,4.69,5.56s-2,5.59-4.69,5.59A4.24,4.24,0,0,1,687.42,152.38Zm5.72-3.86c0-2.06-1.18-3.52-3-3.52a3.47,3.47,0,0,0-2.72,1.41v4.2a3.46,3.46,0,0,0,2.72,1.46C692,152.07,693.14,150.59,693.14,148.52Z"></path><path class="cls-67" d="M696.91,152.44l1.05-1.65a5.45,5.45,0,0,0,3.58,1.47c1.38,0,2.1-.57,2.1-1.4,0-2.09-6.4-.6-6.4-4.69,0-1.74,1.49-3.21,4.17-3.21a6,6,0,0,1,4.09,1.47l-1,1.63a4.34,4.34,0,0,0-3.13-1.28c-1.21,0-1.95.58-1.95,1.32,0,1.87,6.39.47,6.39,4.69,0,1.89-1.55,3.32-4.4,3.32A6.4,6.4,0,0,1,696.91,152.44Z"></path></g></g></g></g></svg> 